<svg xmlns="http://www.w3.org/2000/svg" width="30" height="38" viewBox="0 0 30 38">
    <g fill="none" fill-rule="evenodd">
        <g>
            <g>
                <path fill="#000" fill-opacity="0" d="M0 0H30V38H0z" transform="translate(-1319 -16) translate(1319 16)"/>
                <g stroke="#FFF" transform="translate(-1319 -16) translate(1319 16) translate(5 9)">
                    <circle cx="10" cy="10" r="10"/>
                    <g>
                        <path d="M3.962 0C1.536 2.412 0 5.989 0 9.981 0 13.994 1.552 17.588 4 20" transform="translate(6)"/>
                        <path d="M7.962 0C5.536 2.412 4 5.989 4 9.981 4 13.994 5.552 17.588 8 20" transform="translate(6) matrix(-1 0 0 1 12 0)"/>
                    </g>
                    <g>
                        <path d="M0 1L18 1M0 9L18 9" transform="translate(1 5)"/>
                    </g>
                </g>
            </g>
        </g>
    </g>
</svg>
