<svg xmlns="http://www.w3.org/2000/svg" width="24" height="24" viewBox="0 0 24 24">
    <g fill="none" fill-rule="evenodd">
        <g fill="#999">
            <g>
                <g>
                    <path d="M19.842 8.273c.007.161.012.322.012.486 0 4.956-3.774 10.673-10.675 10.673-2.118 0-4.09-.62-5.75-1.685.293.035.592.052.894.052 1.758 0 3.375-.599 4.66-1.606-1.642-.03-3.028-1.114-3.505-2.604.23.043.464.066.706.066.342 0 .673-.046.989-.132-1.717-.344-3.01-1.86-3.01-3.677v-.048c.506.28 1.085.45 1.7.47-1.007-.674-1.67-1.822-1.67-3.123 0-.688.185-1.332.509-1.887 1.85 2.27 4.615 3.764 7.732 3.92-.064-.274-.097-.56-.097-.855 0-2.072 1.68-3.752 3.751-3.752 1.08 0 2.055.456 2.738 1.186.855-.168 1.659-.48 2.383-.91-.28.875-.875 1.61-1.649 2.075.759-.091 1.481-.292 2.154-.59-.503.751-1.14 1.412-1.872 1.941z" transform="translate(-1402 -3645) translate(0 3556) translate(1402 89)"/>
                </g>
            </g>
        </g>
    </g>
</svg>
