<svg xmlns="http://www.w3.org/2000/svg" xmlns:xlink="http://www.w3.org/1999/xlink" width="24" height="24" viewBox="0 0 24 24">
    <defs>
        <path id="b4fyi9tjqa" d="M0 0L16 0 16 16 0 16z"/>
    </defs>
    <g fill="none" fill-rule="evenodd" opacity="1">
        <g>
            <g>
                <g>
                    <g transform="translate(-1586 -226) translate(1586 226) translate(4 4)">
                        <mask id="ps6u8mnu7b" fill="#fff">
                            <use xlink:href="#b4fyi9tjqa"/>
                        </mask>
                        <path fill="#999" d="M8 1.441c2.136 0 2.39.009 3.233.047.78.036 1.203.166 1.485.276.374.145.64.318.92.598.28.28.454.547.598.92.11.282.24.705.276 1.485.038.844.047 1.097.047 3.233s-.009 2.39-.047 3.233c-.036.78-.166 1.204-.276 1.485-.128.347-.332.662-.598.92-.28.28-.546.454-.92.599-.282.11-.705.24-1.485.275-.844.038-1.097.047-3.233.047s-2.39-.009-3.233-.047c-.78-.035-1.203-.166-1.485-.275-.348-.128-.662-.333-.92-.6-.266-.257-.47-.572-.598-.919-.11-.281-.24-.705-.276-1.485-.038-.844-.047-1.097-.047-3.233s.009-2.39.047-3.233c.036-.78.166-1.203.276-1.485.144-.373.318-.64.598-.92.28-.28.546-.453.92-.598.282-.11.705-.24 1.485-.276.844-.038 1.097-.047 3.233-.047m0-1.44C5.827 0 5.555.008 4.702.047 3.85.088 3.268.222 2.76.42c-.534.201-1.018.516-1.417.923-.407.4-.722.883-.923 1.417-.198.509-.333 1.09-.372 1.942C.009 5.555 0 5.827 0 8s.009 2.445.048 3.298c.04.852.174 1.434.372 1.943.2.533.516 1.017.923 1.416.444.444.89.719 1.417.923.508.198 1.09.333 1.942.372C5.555 15.99 5.827 16 8 16s2.445-.009 3.298-.048c.852-.039 1.434-.174 1.942-.372.534-.2 1.018-.516 1.417-.923.445-.444.719-.891.923-1.416.198-.51.333-1.091.372-1.943.039-.853.048-1.125.048-3.298s-.009-2.445-.048-3.298c-.04-.852-.174-1.433-.372-1.942-.2-.534-.516-1.018-.923-1.417-.4-.407-.883-.722-1.417-.923-.508-.198-1.09-.333-1.942-.372C10.445.01 10.173 0 8 0" mask="url(#ps6u8mnu7b)"/>
                    </g>
                    <path fill="#999" d="M13.309 3.813c0 .537-.436.972-.973.972-.537 0-.971-.435-.971-.972 0-.537.434-.972.971-.972.537 0 .973.435.973.972M8 3.888c-2.271 0-4.113 1.84-4.114 4.11 0 2.271 1.84 4.113 4.111 4.114H8c2.27 0 4.112-1.842 4.112-4.112 0-2.271-1.842-4.112-4.112-4.112m0 6.781C6.526 10.67 5.33 9.474 5.33 8S6.525 5.33 8 5.33c1.474 0 2.67 1.196 2.67 2.67-.001 1.474-1.196 2.67-2.67 2.67" transform="translate(-1586 -226) translate(1586 226) translate(4 4)"/>
                </g>
            </g>
        </g>
    </g>
</svg>
