<svg xmlns="http://www.w3.org/2000/svg" width="24" height="24" viewBox="0 0 24 24">
    <g fill="none" fill-rule="evenodd">
        <g fill="#999">
            <g>
                <g>
                    <g>
                        <path d="M17.143 17.112H13.59v-5.559c0-1.325-.023-3.03-1.846-3.03-1.848 0-2.13 1.444-2.13 2.936v5.653H6.066V5.682h3.405v1.563h.05c.473-.899 1.633-1.847 3.36-1.847 3.598 0 4.262 2.367 4.262 5.445v6.269zM2.06 4.12C.921 4.12 0 3.197 0 2.06 0 .923.92 0 2.061 0 3.197 0 4.12.924 4.12 2.06c0 1.137-.923 2.06-2.059 2.06zm1.777 12.99H.282V5.682h3.556v11.43z" transform="translate(-1322 -3645) translate(0 3556) translate(1322 89) translate(3.429 2.857)"/>
                    </g>
                </g>
            </g>
        </g>
    </g>
</svg>
