<svg xmlns="http://www.w3.org/2000/svg" width="24" height="24" viewBox="0 0 24 24">
    <g fill="none" fill-rule="evenodd">
        <g fill="#999">
            <g>
                <g>
                    <path d="M12.888 5.713l.227.002c1.148.007 3.884.04 5.858.183.357.042 1.137.045 1.832.773.548.556.726 1.816.726 1.816l.009.073c.036.313.174 1.6.174 2.886v1.388c0 1.48-.183 2.96-.183 2.96s-.178 1.26-.726 1.815c-.695.728-1.475.73-1.832.773-2.267.164-5.54.187-6.259.19h-.19c-.5-.004-4.793-.05-6.17-.182-.407-.076-1.32-.053-2.016-.781-.548-.556-.727-1.815-.727-1.815s-.182-1.48-.182-2.96v-1.388c0-1.351.152-2.701.179-2.926l.003-.033s.179-1.26.727-1.816c.695-.728 1.475-.731 1.832-.773.585-.043 1.237-.075 1.894-.1l.494-.018c1.395-.046 2.747-.06 3.47-.065l.227-.002h.633zm-2.205 3.663v5.139l4.941-2.56-4.941-2.579z" transform="translate(-1442 -3645) translate(0 3556) translate(1442 89)"/>
                </g>
            </g>
        </g>
    </g>
</svg>
