<svg width="108" height="57" viewBox="0 0 108 57" fill="none" xmlns="http://www.w3.org/2000/svg">
<g clip-path="url(#clip0)">
<path d="M25.3769 26.4076C25.6921 25.9385 26.0084 25.4706 26.3215 25.0012C26.4102 24.8682 26.544 24.8267 26.7084 24.8347C26.9986 24.8484 27.2883 24.8649 27.5785 24.875C27.6812 24.8786 27.7836 24.8803 27.8855 24.8811C27.8787 24.5587 27.8771 25.0934 27.8747 24.2766C27.8747 23.8442 27.9274 23.4347 27.898 22.9939C27.8666 22.5252 27.8118 22.0517 27.6675 21.6028C27.6026 21.4013 26.9208 19.2747 26.8615 19.284C26.9768 19.2662 27.0675 19.2239 27.1384 19.2457C27.7933 19.4472 28.4767 19.5794 29.0772 19.9227C29.5712 20.2048 29.8638 20.7013 30.0971 21.2268C30.2265 21.5181 30.2986 21.7104 30.2958 22.0211C30.2898 22.4035 30.2865 22.2197 30.2877 22.5183C30.2877 22.8685 30.2757 22.7239 30.2821 23.0741C30.2898 23.4815 30.1652 23.2836 29.9142 23.5818L29.275 24.3431C29.7207 24.2073 29.865 23.7636 30.2229 23.6717C30.2374 23.7164 30.2672 23.7652 30.2672 23.8144C30.27 24.3568 30.2736 24.5962 30.2761 24.825L30.3728 24.817C30.7181 24.7893 31.065 24.7855 31.4109 24.8057C31.5717 24.8207 31.7336 24.8207 31.8945 24.8057C32.0871 24.7839 32.2914 24.7843 32.4784 24.7702C33.0224 24.7299 33.5612 24.6167 34.0428 24.275C34.1286 24.5168 34.0343 24.7021 33.9299 24.8621C33.672 25.2567 33.3863 25.6375 33.1115 26.0239C32.8366 26.4104 32.4836 26.6079 31.9069 26.5797C30.7492 26.5224 31.5491 26.5474 30.3885 26.5394C30.3482 26.5394 30.3079 26.5394 30.2765 26.5394C30.2857 27.5263 30.3345 27.8801 30.3345 29.0121C30.3345 29.5585 30.3345 29.3067 30.343 29.8612C30.3478 30.1324 30.3514 30.3927 30.3361 30.6269C30.3127 30.994 30.0979 31.0907 29.8122 31.2978C29.7586 31.3381 29.6551 31.3808 29.6313 31.4618L30.2978 31.0943C30.4131 32.1421 30.3683 32.2549 30.3828 33.2705C30.3929 33.9825 30.6061 34.6277 30.7423 34.9723C30.7826 35.0758 30.868 35.1826 30.9281 35.2798C31.0119 35.4156 31.1098 35.5417 31.1969 35.6654C30.8979 36.0466 30.7322 36.1224 30.3679 35.9443C30.0455 35.7855 29.7421 35.5735 29.4483 35.3599C29.1662 35.1544 28.9023 34.9207 28.6375 34.6914C28.33 34.425 27.9726 34.1913 27.9524 33.7182C27.945 33.6748 27.9415 33.6308 27.942 33.5868C28.1124 32.2166 27.9843 31.7806 27.9855 30.4109C27.9855 28.8013 27.979 28.8872 27.9633 27.278C27.9601 26.9299 27.9557 26.7139 27.9508 26.5712C27.4491 26.5265 26.947 26.4749 26.4445 26.5156C25.7936 26.568 25.7026 26.5559 25.3769 26.4076ZM50.4355 11.9766C50.6003 12.035 51.2242 11.9766 51.3789 11.7348C51.4115 11.6832 51.5203 11.7086 51.6026 11.7131C51.6931 11.721 51.7841 11.7061 51.8673 11.6695C52.288 11.4765 52.3368 11.4213 52.7636 11.2436C53.1359 11.0888 53.2697 10.8744 53.1887 10.4815C53.1432 10.2634 53.1162 10.0417 53.1081 9.81901C53.0791 8.96105 53.0614 8.10309 53.0404 7.24513C53.0368 7.09441 53.0501 6.94249 53.0356 6.79298C52.955 5.95826 52.8698 5.12421 52.7801 4.29083C52.7716 4.21345 52.7204 4.03695 52.7027 3.96038C52.6507 4.10157 52.613 4.24765 52.5903 4.39641C52.5202 5.25558 52.4694 6.11636 52.3888 6.97553C52.3598 7.28623 52.2731 7.72589 52.2014 7.89756C52.1674 7.98851 52.114 8.071 52.045 8.13936C51.9708 8.08885 51.9008 8.03253 51.8355 7.97091C51.7163 7.84041 51.6224 7.68886 51.5586 7.524C51.478 7.32008 51.4377 7.10046 51.389 6.88566C51.2737 6.37105 51.1166 5.86046 51.0642 5.3394C50.9836 4.52013 50.9916 3.69239 50.9259 2.8711C50.8603 2.04981 50.7462 1.23094 50.6596 0.410462C50.6501 0.318092 50.6478 0.225125 50.6527 0.1324C50.6428 0.0862203 50.6284 0.0411342 50.6096 -0.00219727C50.5834 0.0381015 50.5693 0.142475 50.5693 0.236774C50.5693 0.807001 50.6036 1.37924 50.5645 1.94665C50.5165 2.63939 50.3924 3.32648 50.3287 4.01841C50.2425 4.95576 50.2163 5.89915 50.0994 6.83207C50.0253 7.42526 50.0257 8.05997 49.6102 8.59272C49.1697 8.24494 49.1971 7.73758 49.1044 7.29067C49.0238 6.90622 49.0009 6.50726 48.9835 6.11354C48.9344 5.05167 48.9009 3.98899 48.8626 2.92671C48.8588 2.74646 48.8424 2.56669 48.8135 2.38873C48.7502 2.56806 48.7361 2.62246 48.7284 2.72724C48.6479 3.83827 48.5673 4.94891 48.5048 6.06115C48.4645 6.77968 48.4814 7.50143 48.4395 8.21995C48.3992 8.90906 48.3226 9.59616 48.2505 10.2828C48.2259 10.5166 48.1671 10.7467 48.1111 11.0485C48.2384 11.1114 48.4206 11.2178 48.6148 11.2935C49.2173 11.5297 49.8242 11.7598 50.4355 11.9766V11.9766ZM90.4981 25.7314C90.5199 25.9385 90.5529 26.1049 90.5517 26.2714C90.5404 28.3363 90.5235 28.9895 90.5114 31.054C90.5114 31.3079 90.434 31.5376 90.2293 31.7069C90.002 31.8926 89.7699 32.0881 89.5039 32.2162C88.5996 32.6511 87.6905 33.0762 86.8688 33.638C86.7282 33.7339 86.5867 33.8282 86.4465 33.9241C86.0342 34.2062 85.6957 34.2465 85.2778 33.9769C84.7813 33.6545 84.3219 33.285 83.8468 32.9352C83.4841 32.6672 83.3825 32.3033 83.3898 31.8955C83.4023 31.1862 83.4196 30.4769 83.4144 29.7677C83.4083 28.9375 83.3789 29.5195 83.3632 28.6897C83.3576 28.3947 83.3697 28.0997 83.3608 27.8051C83.3555 27.6121 83.4458 27.4719 83.5973 27.3522C83.7489 27.2325 83.9008 27.1104 84.0527 26.9867L83.9931 26.9061L83.497 27.1515C83.281 26.757 83.422 26.3479 83.4027 25.9534C83.3781 25.4461 83.4402 24.9339 83.3922 24.4293C83.3487 23.9667 83.551 23.6524 83.9266 23.4025C84.257 23.1825 84.6258 23.0072 84.9373 22.7678C85.2137 22.555 85.5651 22.5296 85.8585 22.3688C86.5718 21.9779 87.3028 21.6144 88.0125 21.2191C88.1995 21.1147 88.3522 21.1143 88.5464 21.1639C89.0062 21.2812 89.3971 21.5089 89.7824 21.7559C90.328 22.1053 90.4868 22.6243 90.542 23.1837C90.569 23.4597 90.5452 23.7398 90.542 24.0179C90.542 24.1521 90.542 24.2863 90.5384 24.4209C90.5299 24.7404 90.463 25.0354 90.1136 25.2014L90.3409 25.3945L89.566 25.8986L90.4981 25.7314ZM87.9379 30.4733C87.9085 27.8865 87.8714 27.6448 87.8424 25.058C87.8372 24.5945 87.6498 24.192 87.3677 23.8281C87.0747 23.4501 86.602 23.3445 86.0938 23.1454C86.0938 23.3545 86.0938 23.7213 86.0938 23.8514C86.1108 25.7551 86.1261 25.6826 86.1482 27.5863C86.1511 27.8382 86.1483 28.0747 85.821 28.2049C85.9016 28.2323 85.9822 28.2589 86.0628 28.2831C86.1176 28.2996 86.1071 28.3117 86.1148 28.3637C86.1203 28.3886 86.1239 28.414 86.1257 28.4394C86.1239 28.5474 86.0806 28.6506 86.0048 28.7276C85.8484 28.892 85.6111 28.973 85.4301 29.1112C85.3889 29.1425 85.3502 29.177 85.3145 29.2144C85.3314 29.1963 85.4063 29.1878 85.4321 29.1805L85.553 29.1459L85.7731 29.0826L85.9818 29.0226C86.0491 29.0028 86.12 28.9581 86.139 29.05C86.1579 29.1419 86.141 29.2555 86.141 29.3514C86.141 29.9156 86.1305 29.8733 86.1507 30.4358C86.1567 30.6148 86.191 30.8332 86.3078 30.9597C86.7209 31.4119 87.2089 31.7899 87.869 32.0397C87.8948 31.9354 87.9174 31.885 87.9182 31.8338C87.927 31.3804 87.9432 30.9267 87.9379 30.4733V30.4733ZM9.82404 27.9849C9.82404 26.7646 9.80672 26.9484 9.79543 25.7281C9.79221 25.3828 9.76843 25.0366 9.78173 24.6921C9.80067 24.1932 9.99894 23.8333 10.5498 23.5915C11.2172 23.2989 11.8144 22.8742 12.4519 22.5208C12.7376 22.3624 13.0467 22.2387 13.3445 22.0996C13.4614 22.0448 13.5912 22.0037 13.6907 21.9292C14.5583 21.2804 15.3381 21.5371 16.132 22.1307C16.6914 22.5486 16.8812 23.1647 16.9078 23.8152C16.9182 24.0694 16.8864 24.3262 16.9078 24.5788C16.9344 24.873 16.882 25.11 16.4504 25.2417C16.8739 25.3143 16.9029 25.5275 16.8937 25.7761C16.8695 26.5821 16.8534 27.384 16.838 28.1884C16.8122 29.4751 16.7869 29.357 16.7667 30.6466C16.7638 30.8853 16.7773 31.1239 16.807 31.3607C16.9053 31.9217 16.7587 32.2634 16.2376 32.5503C15.725 32.8324 15.1955 33.0871 14.6776 33.3603C14.5317 33.4373 12.763 34.4774 12.3439 34.6249C11.6044 34.3025 10.9036 33.8153 10.3052 33.3668C10.1547 33.2577 10.0277 33.1194 9.93188 32.9602C9.83605 32.8009 9.77333 32.624 9.74748 32.4399C9.71524 32.2074 9.77851 31.9644 9.78173 31.7262C9.80228 30.4774 9.82243 29.2313 9.82404 27.9849ZM11.7467 30.2211L11.7926 30.2614L12.4112 29.912C12.4439 30.003 12.4773 30.0449 12.4668 30.0732C12.3347 30.4455 12.4092 30.8167 12.4797 31.1846C12.5333 31.4667 12.6812 31.6944 12.9025 31.91C13.1846 32.1868 13.5827 32.2622 13.8882 32.4858C13.9688 32.5455 14.084 32.5664 14.2408 32.6281C14.2408 32.1336 14.2376 31.6952 14.2408 31.2579C14.2545 29.7185 14.2791 29.5928 14.2811 28.0534C14.2811 27.6214 14.238 27.5069 14.6373 27.1817C14.6557 27.1612 14.6665 27.1351 14.668 27.1076C14.6684 27.0795 14.6657 27.0516 14.6599 27.0242L14.352 27.1378C14.327 26.946 14.302 26.3612 14.2916 26.2194C14.2484 25.6318 14.1981 25.8511 14.1707 25.2623C14.1372 24.5027 13.677 24.0291 12.9718 23.7168C12.8142 23.6471 12.6716 23.4928 12.4443 23.579C12.4443 24.3737 12.4443 25.1628 12.4443 25.9518C12.4479 27.6794 12.441 27.3179 12.4688 29.0455C12.4749 29.4046 12.3641 29.6621 12.0755 29.8842C11.9534 29.9821 11.8563 30.1086 11.7467 30.2211V30.2211ZM74.5023 25.7616C74.4939 25.2522 74.437 25.5545 74.4511 25.0463C74.4652 24.5381 74.5366 24.0348 74.5914 23.5298C74.6016 23.4486 74.6354 23.3721 74.6885 23.3098C75.1652 22.7646 75.7137 22.3023 76.508 22.2157C76.7542 22.1895 77.0319 22.2504 77.2676 22.3366C77.864 22.5554 78.4439 22.8117 79.0811 23.0733C79.0843 23.06 78.99 19.1018 78.9924 19.1018C78.9618 18.7492 78.942 18.4413 78.8985 18.1371C78.8582 17.855 78.7595 17.5822 78.728 17.3005C78.6712 16.7895 78.3976 16.3611 78.2287 15.8932C78.2025 15.8199 78.122 15.7675 78.0825 15.6962C78.0152 15.5753 77.9616 15.4479 77.881 15.2839C78.0055 15.2714 78.0825 15.2501 78.1566 15.2585C78.6982 15.3214 79.2447 15.3573 79.779 15.4657C80.5237 15.618 80.967 16.1362 81.204 16.8298C81.4861 17.6539 81.47 18.503 81.4571 19.3686C81.451 19.7942 81.4974 21.5979 81.5095 22.1387C81.5119 22.229 81.5187 24.9411 81.524 25.5895C81.524 25.6661 81.5268 25.7431 81.528 25.8208H81.5268C81.5268 25.8353 81.5268 25.849 81.5268 25.864C81.5381 27.7544 81.5417 28.3137 81.5526 30.2037C81.5562 30.8058 81.559 31.4083 81.588 32.0091C81.6142 32.5552 81.4458 33.0061 80.9703 33.3579C80.5725 33.6521 80.2022 33.9773 79.8036 34.2707C79.4506 34.5314 79.0674 34.5528 78.6668 34.3356C77.6376 33.7714 76.6003 33.2229 75.5751 32.6539C75.2797 32.4858 74.9983 32.2941 74.7336 32.0808C74.6333 31.9942 74.5702 31.8723 74.5575 31.7403C74.5281 31.233 74.5172 30.7236 74.5172 30.215C74.5172 29.3309 74.5354 28.4467 74.5333 27.5625C74.5305 26.5196 74.5192 26.8057 74.5023 25.7616ZM76.7901 26.7542C77.0669 26.7715 77.0601 26.9323 77.0589 27.0979C77.0589 27.1664 77.0589 27.2115 77.0589 27.2406C77.0589 27.2696 77.0589 27.2962 77.0609 27.3345C77.0762 28.0703 77.1141 29.249 77.1266 29.9849C77.1375 30.6132 77.1169 30.8243 77.1302 31.4526C77.1358 31.7314 77.191 32.0091 77.2354 32.3795C77.4848 32.2747 77.696 32.2303 77.8399 32.1155C78.0921 31.914 78.3105 31.6766 78.5298 31.4433C78.8429 31.1108 78.9231 30.705 78.9263 30.2811C78.9344 29.1971 78.9424 28.0872 78.9481 27.0032C78.9569 25.3695 78.8989 26.5623 78.8981 24.9286C78.8981 24.6163 78.915 24.3125 78.8868 23.9985C77.8427 24.142 77.3152 24.5309 77.152 25.3687C77.0371 25.955 77.0714 25.3767 77.0581 25.978C77.0508 26.252 77.0391 26.5144 76.7901 26.7542ZM67.0309 34.12C67.4871 33.9858 67.9723 33.9342 68.445 33.8487C68.8593 33.7738 68.9326 33.6912 68.8972 33.3112C68.8798 33.1242 68.8488 32.9388 68.8279 32.7518C68.7553 32.099 68.6231 31.4461 68.6264 30.7933C68.6264 30.4741 68.6223 30.1546 68.6167 29.835C68.6268 29.0383 68.611 28.7896 68.5985 28.4689C68.5985 28.4354 68.5985 28.402 68.5985 28.3681H68.5949C68.5873 28.1408 68.5816 27.8535 68.5869 27.3244C68.5869 27.2265 68.7481 27.1285 68.7223 26.9879L68.0565 27.2365L68.0021 27.1559C68.1633 27.033 68.3177 26.8972 68.4922 26.7908C68.709 26.6586 68.7936 26.493 68.7912 26.2536C68.7831 25.4235 68.7912 24.5933 68.8025 23.7636C68.8049 23.5887 68.8532 23.4146 68.8863 23.2058C69.2272 23.3179 69.5045 23.3993 69.7729 23.5012C69.8748 23.5415 69.9969 23.6096 70.0372 23.6947C70.1952 24.0243 70.3765 24.3564 70.4495 24.7054C70.5341 25.1084 70.524 25.5283 70.5361 25.9413C70.5482 26.3544 70.5309 26.7723 70.5361 27.1874C70.5494 28.0159 70.5764 27.3119 70.5869 28.14C70.5808 28.6768 70.5466 29.7266 70.5542 30.263C70.5635 30.9706 70.4737 31.6819 70.6304 32.3863C70.7427 32.9251 71.0282 33.4124 71.4432 33.7738C71.8555 34.1413 72.3492 34.2852 72.8807 34.3964C73.2357 34.4706 73.5738 34.477 73.924 34.3214C73.9166 34.2859 73.9048 34.2514 73.889 34.2187C73.8507 34.1609 73.8055 34.108 73.7544 34.0611C73.3461 33.7307 73.1712 33.2842 73.1044 32.8179C73.0052 32.1425 72.9246 31.4598 72.9162 30.7792C72.9162 30.676 72.9141 30.5733 72.9133 30.4701C72.9166 29.7967 72.9206 28.8412 72.9214 28.1678C72.9214 26.4922 72.9174 26.3492 72.9186 24.6735C72.9186 24.2447 72.9512 23.8148 72.9327 23.3868C72.9097 22.85 72.7767 22.3568 72.2073 22.0525C71.9468 21.9075 71.7027 21.7348 71.4791 21.5375C71.2518 21.3444 71.0282 21.3263 70.765 21.4488C70.2838 21.6729 69.7878 21.8728 69.3207 22.119C68.8041 22.391 68.3092 22.4333 67.7962 22.1343C67.4142 21.9116 67.0309 21.6907 66.6465 21.4718C66.3745 21.3166 66.2032 21.386 66.1544 21.6789C66.1357 21.7989 66.131 21.9206 66.1403 22.0416C66.1524 22.2431 66.1967 22.4414 66.1959 22.6413C66.1907 23.8329 66.1722 25.0245 66.1661 26.2162C66.1573 27.837 66.1556 27.9256 66.1512 29.5469L66.1488 30.5414C66.129 31.1278 66.0964 31.7137 66.0682 32.3001C66.0561 32.5531 66.0775 32.8239 65.9828 33.0532C65.849 33.3756 65.938 33.6356 66.144 33.8653C66.3652 34.1111 66.6352 34.2364 67.0309 34.12ZM104.398 34.5661C104.08 33.9541 103.925 33.2708 103.948 32.5818C103.959 32.1683 103.952 31.7544 103.951 31.341C103.951 30.2412 103.947 29.7209 103.949 28.6212C103.951 26.5019 103.949 25.8345 103.967 23.7152C103.973 23.1273 103.771 22.6332 103.328 22.2294C102.611 21.5758 101.951 21.4734 101.141 21.8184C100.85 21.9425 100.572 22.0928 100.295 22.2399C99.6286 22.5913 99.1321 22.5538 98.5256 22.1125C98.2637 21.9219 97.9993 21.7281 97.7108 21.575C97.5766 21.5036 97.3436 21.4573 97.2244 21.5165C96.8161 21.718 96.4357 21.9699 96.0505 22.2097C95.7643 22.3882 95.4988 22.5985 95.2223 22.6666C94.7984 22.2375 94.42 21.8305 94.0134 21.4488C93.5243 20.9868 92.9396 20.638 92.3007 20.4273C91.7365 20.2411 91.1671 20.1669 90.5984 20.5228C90.6423 20.5605 90.6892 20.5946 90.7387 20.6247C91.4616 20.981 92.0383 21.444 92.1773 22.2391C92.2037 22.3718 92.2452 22.5011 92.3011 22.6243C92.4756 23.0305 92.5336 23.4529 92.5239 23.8853C92.5114 24.4616 92.4808 25.0374 92.4836 25.6137C92.4888 26.3757 92.5312 25.6858 92.536 26.4479C92.5416 27.3433 92.5239 28.2388 92.5167 29.1346C92.5138 29.4425 92.5223 29.7508 92.5078 30.0582C92.4796 30.6575 92.4385 31.2567 92.403 31.856C92.3841 32.1784 92.4316 32.5181 92.3224 32.8115C92.2442 33.0242 92.262 33.1995 92.3111 33.3809C92.4038 33.721 92.8866 34.0015 93.2134 33.9346C93.7264 33.8294 94.239 33.7214 94.7536 33.6207C95.2284 33.5276 95.2872 33.4615 95.2445 33.0271C95.2392 32.9739 95.2284 32.9211 95.2219 32.8659C95.1284 32.08 94.9721 31.2942 94.9551 30.5084C94.9217 28.9577 94.8987 27.6875 95.041 26.1376C95.0486 26.057 95.0543 26.001 95.0583 25.9659C95.0623 25.9308 95.0583 25.8728 95.0583 25.7797C95.0688 25.0322 95.0885 24.285 95.1059 23.4827C95.3908 23.6036 95.6539 23.6842 95.8848 23.814C96.4123 24.1122 96.8173 24.499 96.8568 25.112C96.8826 25.515 96.9374 25.9131 96.9423 26.3137C96.956 27.6536 96.9503 27.2595 96.956 28.5998C96.9619 30.046 96.9703 31.4923 96.9814 32.9388C96.9814 33.1733 96.9814 33.4079 96.9814 33.6581L99.6814 33.5243C99.7003 33.3716 99.7253 33.268 99.7245 33.1649C99.712 31.6101 99.7011 30.0554 99.6765 28.5007C99.6725 28.2488 99.6161 27.9954 99.5613 27.7471C99.5149 27.5355 99.3908 27.4985 99.1736 27.6093C99.0849 27.6544 99.0019 27.7088 98.8875 27.7757C98.9391 27.5174 99.0866 27.3901 99.2905 27.3284C99.5214 27.2575 99.5992 27.1269 99.6044 26.9081C99.6125 26.5744 99.685 25.7169 99.6822 25.384C99.6794 24.2576 99.6564 25.3896 99.6419 24.2637C99.6395 24.0662 99.6419 23.8692 99.6419 23.631C99.8301 23.683 99.9643 23.7253 100.104 23.7583C100.825 23.9308 101.369 24.7207 101.356 25.3784C101.326 26.8517 101.345 26.5913 101.356 28.0651C101.367 29.995 101.366 31.3454 101.414 33.2745C101.436 34.13 101.862 34.8123 102.731 35.2137C103.308 35.4804 103.935 35.5022 104.562 35.5437C104.8 35.5594 104.868 35.4752 104.907 35.3745C104.714 35.0746 104.533 34.8292 104.398 34.5661V34.5661ZM57.3572 32.5761C57.3858 31.719 57.4128 30.4149 57.4439 29.5577C57.4688 28.8759 57.4805 28.8787 57.5329 28.1985C57.5635 27.8043 57.7453 27.4497 58.0536 27.16C58.5331 26.709 59.0518 26.4245 59.782 26.2915C60.3599 26.1416 60.7846 25.9441 61.2851 25.8611C61.6438 25.8015 61.9468 25.4638 61.9517 25.1285C61.9565 24.7932 61.9517 25.2691 61.9746 24.8295C61.9722 24.5071 62.0174 24.0493 61.9142 23.9143C61.8957 23.8043 61.3198 23.5802 61.1308 23.5581C60.7979 23.5178 60.432 23.475 60.1004 23.4746C59.5322 23.4766 58.9722 23.6091 58.4634 23.8619C58.1958 23.9925 57.942 24.1464 57.599 24.3354C57.6393 24.1863 57.6393 23.8273 57.6869 23.7712C58.4473 22.8339 59.2343 22.1911 60.3329 21.552C60.6974 21.3328 61.0488 21.0923 61.3851 20.8318C61.5721 20.6912 61.73 20.6743 61.9368 20.7867C62.6396 21.1693 63.3463 21.5454 64.0569 21.9151C64.3833 22.0843 64.5324 22.3225 64.5336 22.6671C64.5389 24.1412 64.5614 25.3461 64.5646 26.8206C64.5679 28.0812 64.5518 28.6563 64.5469 29.9168C64.5449 30.3456 64.5376 31.2213 64.5586 31.6496C64.5779 32.0494 64.4377 32.3496 64.0436 32.5475C63.3428 32.8985 62.6509 33.2644 61.9513 33.6166C61.3758 33.906 60.7911 34.1808 60.2184 34.4706C59.8852 34.6394 59.5894 34.6128 59.2799 34.4137C58.85 34.1367 58.41 33.8724 57.9597 33.6207C57.5253 33.3756 57.3423 33.0271 57.3572 32.5761ZM59.3036 30.3149L59.7836 30.2863C59.8005 31.6351 60.6444 32.1864 61.8521 32.8211C61.8832 32.61 61.9057 32.5596 61.9166 32.3887C61.948 31.8818 61.9428 31.5384 61.965 31.0307C61.9726 30.8558 62.0573 30.7328 62.2088 30.6277C62.3164 30.5535 62.3978 30.4475 62.4909 30.3557L62.4453 30.2912L62.0879 30.3339C62.0585 30.2291 62.021 30.1533 62.0182 30.0772C61.998 29.5013 61.9706 29.0866 61.9779 28.5108C61.9803 28.3282 62.081 28.1481 62.137 27.9631C61.9819 27.9414 61.9646 27.8064 61.9622 27.6472C61.9549 27.2188 61.9009 27.3288 61.8816 26.9008C61.8817 26.7751 61.8699 26.6496 61.8461 26.5261C61.3395 26.7175 60.9059 26.8485 60.5227 27.2595C60.2849 27.5146 60.083 27.7624 60.0173 28.0888C59.9311 28.518 59.8964 28.4745 59.807 28.9089C59.7304 29.2829 59.8094 30.0163 59.3036 30.3145V30.3149ZM18.5757 25.7817C18.5213 25.8877 18.4411 25.9893 18.4194 26.0997C18.3859 26.2694 18.4194 26.4499 18.3791 26.6175C18.3098 26.9049 18.4383 27.1261 18.6591 27.2982C18.8489 27.4461 19.0843 27.5484 19.3039 27.6657C20.0466 28.0639 22.0805 28.9992 22.4754 29.1971C22.909 29.4123 23.098 29.7637 23.0984 30.2001C23.1005 31.5783 23.1053 31.1576 23.1049 32.5374C23.1104 32.6023 23.1063 32.6676 23.0928 32.7313C22.6612 32.6055 22.1595 32.398 21.6074 31.7713C20.8901 30.9569 20.5383 31.0798 20.9296 29.7637C20.8422 29.7577 20.7552 29.7787 20.6801 29.8237C20.1877 30.1058 19.7045 30.4048 19.2068 30.6813C18.9751 30.8008 18.7757 30.9744 18.6253 31.1874C18.4456 31.4252 18.2545 31.6891 18.4306 31.9813C18.8586 32.697 18.5721 32.3746 19.0279 32.9791C19.524 33.6799 19.8641 33.7593 20.5512 34.2558C20.7313 34.3424 21.0871 34.6495 21.2657 34.5653C22.0144 34.2139 22.772 33.8774 23.5252 33.5336C24.1297 33.2576 24.7318 32.9763 25.3387 32.7039C25.5071 32.6281 25.5684 32.5358 25.5651 32.3581C25.5337 30.8171 25.5248 30.2839 25.4938 28.7425C25.4874 28.4145 25.389 28.109 25.0227 27.9244C24.7612 27.7927 24.5278 27.6141 24.2607 27.4932C23.2649 27.0427 22.2671 26.5954 21.256 26.1718C20.8586 26.0054 20.7059 25.5271 20.685 25.1575C20.6793 25.0527 20.6418 25.0991 20.633 25.0842C20.4718 25.1221 20.4009 25.1708 20.2183 25.2139C20.5068 24.9951 20.6954 24.8053 20.693 24.524C20.6894 24.1355 20.7095 24.1573 20.7059 23.7696C20.7059 23.517 20.7402 23.3352 20.9679 23.1704C21.501 23.5971 22.0325 24.1887 22.5129 24.6614C22.901 25.0443 23.2008 25.0963 23.1734 25.6286C23.1609 25.8652 23.1714 25.7241 23.1714 25.9591C23.252 25.9703 23.2975 25.9857 23.3402 25.9804C23.3991 25.974 23.4565 25.9577 23.5099 25.9321C24.1124 25.6173 24.4686 25.2708 24.9103 24.7827C25.0715 24.603 25.2488 24.4233 25.3564 24.2109C25.4479 24.03 25.4555 24.059 25.437 23.8692L25.4334 23.8289C25.4116 23.6185 25.2798 23.4122 25.1678 23.2304C25.038 23.0201 24.9332 22.8395 24.7575 22.6586C24.7064 22.6062 24.6556 22.5538 24.6084 22.4974C24.5535 22.4333 24.5039 22.3648 24.4601 22.2927C24.4467 22.2655 24.4289 22.2407 24.4074 22.2193C24.3094 22.1387 24.253 22.2705 24.1857 22.3112C24.0935 22.3673 23.9943 22.4109 23.8907 22.441C23.9403 22.3052 24.0789 22.144 24.2421 22.1101C23.9854 21.9336 23.7041 21.604 23.3817 21.5242C23.0763 21.4484 22.745 21.5967 22.4726 21.7027C22.3481 21.7511 22.2276 21.8083 22.1075 21.8639C21.0795 22.3475 20.0644 22.8552 19.0182 23.3062C18.5749 23.4976 18.3734 23.762 18.3448 24.1706C18.3339 24.3318 18.3126 24.493 18.3154 24.6522C18.3251 25.2272 18.3267 24.7549 18.3678 25.3284C18.3787 25.4948 18.5133 25.6528 18.5757 25.7817ZM73.133 38.0136C73.1712 38.0052 73.1116 38.0136 73.133 38.0136V38.0136ZM44.8146 33.1717C44.4717 32.8925 44.3266 32.5145 44.2694 32.1203C44.1864 31.5489 44.1187 30.9706 44.1118 30.3947C44.1118 30.3516 44.1118 30.3081 44.1118 30.265C44.1171 30.265 44.0518 28.0788 44.0349 27.71C44.03 27.6093 43.9543 27.511 43.8857 27.3441C44.2613 26.6744 44.1159 26.0276 43.4376 25.5416C43.3131 25.4525 43.1555 25.3985 43.0395 25.3022C42.8174 25.12 42.5962 25.141 42.3387 25.2309C41.8644 25.3965 41.3836 25.5472 40.9008 25.6911C40.7727 25.729 40.5925 25.7745 40.4978 25.7229C40.3366 25.6347 40.2202 25.5375 40.0501 25.4178C39.6826 25.0576 39.0491 24.9298 39.0148 24.9065C38.9048 24.8319 38.6977 24.7545 38.5462 24.6719C38.5372 24.6665 38.5268 24.6639 38.5163 24.6643C38.5059 24.6647 38.4957 24.6682 38.4872 24.6742C38.4787 24.6803 38.4721 24.6887 38.4682 24.6985C38.4644 24.7082 38.4635 24.7189 38.4656 24.7291C38.5083 24.8678 38.6098 25.0781 38.6646 25.1406C38.7706 25.2615 39.0044 26.381 39.0052 26.7276V32.4012C39.7305 32.3653 40.9145 32.2989 41.0076 32.298C41.1007 32.2972 41.0882 31.9563 41.0882 31.9563C41.0882 31.3724 41.0987 30.2481 41.1035 29.6641C41.1059 29.372 41.1067 29.5646 41.1035 29.2724C41.1011 29.0004 41.0963 28.8062 41.0967 28.4797C41.0967 28.4681 41.0616 28.4854 41.0419 28.5027C40.9465 28.5538 40.8555 28.6127 40.7698 28.6788C40.6719 28.7594 40.5837 28.7945 40.5079 28.8936C40.5031 28.8453 40.5365 28.8017 40.5688 28.763C40.6405 28.6764 40.7106 28.5881 40.7848 28.5031C40.8213 28.4571 40.8618 28.4144 40.9057 28.3754C40.9234 28.3609 41.0668 28.3133 41.0753 28.2948C41.0788 28.2862 41.0802 28.277 41.0793 28.2678C41.0793 28.2093 41.0548 27.9361 41.0753 27.8458C41.0959 27.7556 41.1192 27.2518 41.1269 26.919C41.3284 26.9851 41.4606 27.0262 41.5915 27.0721C41.972 27.2051 42.1477 27.6093 42.1461 27.9812C42.1461 28.2702 42.1356 30.1574 42.1404 30.155C42.1344 30.6877 42.088 31.2221 42.2041 31.7516C42.296 32.2068 42.5333 32.6197 42.8803 32.9283C43.2253 33.2394 43.6383 33.3611 44.0836 33.455C44.3806 33.5183 44.6635 33.5235 44.9569 33.3918C44.9509 33.3617 44.941 33.3326 44.9275 33.3051C44.8956 33.2561 44.8577 33.2113 44.8146 33.1717V33.1717ZM34.5703 35.2386C34.4494 35.4067 33.7619 36.2026 33.6531 36.3783C33.3609 36.8494 32.8117 37.1125 32.4328 37.5208C32.1395 37.8367 29.1686 39.3987 28.8463 39.545C28.5239 39.6913 28.3224 39.8005 28.2357 39.9165C28.2311 39.9225 28.2245 39.9266 28.2172 39.9282C28.2098 39.9299 28.2021 39.9289 28.1954 39.9254C27.9782 39.8126 27.4245 39.8936 27.1561 39.9254C26.7796 39.9733 26.4 39.9937 26.0205 39.9862C25.4068 39.9766 25.1057 39.9766 24.5754 39.9181C24.5065 39.9109 24.4335 39.902 24.3554 39.8923C24.2514 39.8795 24.1136 39.852 23.9524 39.8198C23.3108 39.6848 22.3134 39.4168 21.7585 39.2677C21.5506 39.2125 21.4047 39.1746 21.3628 39.167L21.3285 39.1605C20.9614 39.0896 20.4077 38.907 19.995 38.7172L19.9894 38.714C19.6646 38.5818 19.9652 38.5165 19.9116 38.4928C19.858 38.469 19.5143 38.5617 19.4949 38.5669C19.4189 38.5859 19.3408 38.5954 19.2624 38.5951C19.1762 38.5951 19.0609 38.61 18.9892 38.6117C18.5818 38.6205 18.3368 38.7471 18.3311 38.7483C18.3138 38.7523 18.3154 38.7281 18.3492 38.708C18.392 38.685 18.5814 38.5262 18.7748 38.4464C18.7849 38.4424 18.7936 38.4353 18.7996 38.4262C18.8056 38.4171 18.8086 38.4063 18.8084 38.3954C18.8081 38.3845 18.8045 38.3739 18.7981 38.3651C18.7917 38.3563 18.7827 38.3497 18.7724 38.3461L18.7039 38.3223C18.4173 38.2123 18.0994 38.0467 17.8173 37.9278C15.2051 36.8268 13.3998 36.4323 13.2768 36.39C13.2035 36.365 12.6776 36.2135 12.6047 36.1885C12.5962 36.1857 11.9506 36.255 11.9385 36.2111C11.9317 36.1869 12.0469 36.151 12.0377 36.128C12.007 36.0523 11.9143 36.0547 11.8458 36.0422C10.4882 35.7964 9.24817 35.6747 7.4033 35.9737C7.39856 35.9748 7.39365 35.9748 7.38891 35.9737C7.38416 35.9727 7.37971 35.9706 7.37586 35.9676C7.37201 35.9647 7.36887 35.9609 7.36664 35.9566C7.36442 35.9523 7.36318 35.9475 7.363 35.9427C7.35655 35.7851 7.35292 35.4067 7.36945 35.1157C7.38395 34.8615 7.19657 34.934 7.19375 34.8913C7.18166 34.7188 7.34406 34.5931 7.34406 34.5931C7.36582 34.56 7.39282 34.5379 7.38758 34.4166C7.3626 33.8367 7.30698 28.8638 7.43876 28.2944C7.45265 28.2067 7.45265 28.1173 7.43876 28.0296C7.39403 27.5722 7.46012 27.4529 7.8889 27.3469C7.89429 27.3456 7.89926 27.343 7.90337 27.3392C7.90747 27.3355 7.91059 27.3308 7.91243 27.3256C7.91427 27.3203 7.91477 27.3147 7.9139 27.3092C7.91303 27.3037 7.91081 27.2986 7.90744 27.2942C7.84343 27.197 7.7716 27.1052 7.69264 27.0197C7.40048 26.7352 7.31021 26.3931 7.336 25.9937C7.37872 25.3207 7.41257 24.6465 7.42586 23.9723C7.4303 23.7519 7.43352 23.4799 7.43594 23.1801C7.44561 22.6441 7.45528 20.0952 7.46495 19.5588C7.46858 19.3517 7.48712 19.2981 7.48107 19.1111C7.48097 19.1066 7.47997 19.1021 7.47812 19.0979C7.47628 19.0938 7.47363 19.0901 7.47033 19.087C7.46703 19.0838 7.46315 19.0814 7.45891 19.0798C7.45466 19.0782 7.45014 19.0775 7.44561 19.0776C7.38516 19.0825 7.3094 19.0647 7.26588 19.0974C7.22021 19.1375 7.17003 19.1721 7.11637 19.2006C7.02995 19.2491 6.94749 19.3043 6.86974 19.3658C6.75126 19.475 6.68195 19.5983 6.66502 19.5854C6.63964 19.5657 6.74562 19.3916 6.81332 19.3174C6.82421 19.3057 7.08252 19.0567 7.10388 19.0253C7.10786 19.0193 7.10984 19.0122 7.10953 19.005C7.10921 18.9978 7.10663 18.9909 7.10214 18.9853C7.09765 18.9797 7.0915 18.9757 7.08457 18.9738C7.07764 18.9719 7.07029 18.9723 7.06358 18.9749C7.02127 18.9898 7.00716 18.9878 7.02328 18.9567C7.03215 18.941 7.33519 18.6569 7.4303 18.6017L7.46254 18.5836C7.46756 18.5806 7.47174 18.5765 7.4747 18.5715C7.47766 18.5665 7.4793 18.5608 7.47946 18.555L7.49679 17.6305C7.49679 16.9984 7.60828 16.5273 7.83127 16.2172C7.98441 16.0184 8.14197 15.881 8.30397 15.805C8.30906 15.8026 8.31392 15.7998 8.31848 15.7965C8.64611 15.6426 8.79965 15.4044 8.84841 15.0538C8.9008 14.6815 8.96487 14.3107 9.00316 13.9371C9.01605 13.8098 8.98664 13.6776 8.96286 13.5096C8.96212 13.5031 8.95949 13.4969 8.9553 13.4919C8.95111 13.4869 8.94554 13.4832 8.93928 13.4813C8.93302 13.4794 8.92634 13.4794 8.92008 13.4813C8.91381 13.4832 8.90823 13.4868 8.90402 13.4918C8.75935 13.6595 8.65095 13.7961 8.52642 13.9158C8.22942 14.2007 7.86915 14.3917 7.4976 14.5585C6.97371 14.7947 6.24229 15.1441 5.71518 15.3758C5.46493 15.4858 4.97369 15.6579 4.84231 15.7087C4.68555 15.7715 4.50864 15.8118 4.3547 15.8924C4.26886 15.9364 4.16973 16.0371 4.15603 16.125C4.09558 16.5054 4.00813 16.6843 4.21406 17.0619L4.48325 17.556C4.6916 17.9384 4.73754 18.3333 4.74963 18.7613L4.83022 23.5234C4.82378 23.7366 4.81169 23.9296 4.79194 24.0876C4.76292 24.3229 4.74479 24.5925 4.73552 24.8581C4.7323 24.9451 4.73028 25.0318 4.72907 25.1168C4.71175 25.3002 4.66742 25.4392 4.60818 25.4795C4.36778 25.5993 4.09719 25.6449 3.83081 25.6105C3.53542 25.5734 3.41816 25.5299 3.41816 25.6032C3.57129 25.7463 3.55759 25.7922 3.75344 25.9369C4.1931 26.2593 4.25153 26.514 4.4627 26.9657C4.56304 27.1797 4.61865 27.5106 4.65049 27.8281C4.64766 27.9239 4.65116 28.0197 4.66097 28.115C4.72504 28.4705 4.72142 31.2072 4.73351 31.5707C4.73552 31.6359 4.73915 31.7629 4.74358 32.024C4.74358 32.0986 4.60495 32.3432 4.35309 32.3972C4.34697 32.3986 4.34139 32.4018 4.33698 32.4063C4.33258 32.4108 4.32953 32.4164 4.32818 32.4226C4.32683 32.4287 4.32725 32.4351 4.32937 32.441C4.3315 32.4469 4.33525 32.4521 4.34019 32.456C4.53766 32.6124 4.75406 32.8558 4.75406 33.0669C4.75406 33.1745 4.75728 33.0984 4.75889 33.202C4.76494 33.5787 4.77018 34.7672 4.7734 34.8747C4.79516 35.2342 4.64243 35.9084 4.65452 36.3513C4.68432 36.393 4.72273 36.4279 4.76715 36.4534C4.81158 36.479 4.86099 36.4948 4.91203 36.4996C4.91936 36.5014 4.92586 36.5057 4.93051 36.5116C4.93516 36.5176 4.93768 36.5249 4.93768 36.5324C4.93768 36.54 4.93516 36.5473 4.93051 36.5533C4.92586 36.5592 4.91936 36.5635 4.91203 36.5653L4.6658 36.6277C4.66097 36.6277 4.1387 36.8695 3.90013 36.9904C3.75425 37.0646 3.12559 37.3979 2.99985 37.4502C2.83866 37.5183 2.50781 37.7541 2.37079 37.8653C2.05848 38.1184 1.94201 38.3086 1.66798 38.631C1.60068 38.7116 1.5761 38.7309 1.5092 38.8067C1.41894 38.9091 1.16546 39.2218 1.10622 39.3487C1.07834 39.4434 1.04372 39.5359 1.00265 39.6256C0.962351 39.7038 1.09574 39.6703 1.11992 39.6506C1.78646 39.1029 2.82496 38.6556 2.9785 38.6491C4.34301 38.1752 5.47339 37.8766 5.49354 37.8689C5.58542 37.8428 5.69221 37.8162 5.80263 37.7932L6.32893 37.6723C6.6207 37.6066 6.88707 37.6195 7.4573 37.5486H7.46052C7.82321 37.5369 8.24554 37.5486 8.62153 37.5752C8.97253 37.5998 9.05595 37.6961 9.06683 37.7307C9.06683 37.7331 9.06683 37.7356 9.06683 37.7376C9.08255 37.8182 9.03016 37.8415 9.00316 37.9008C9.00106 37.9058 9.00022 37.9112 9.00069 37.9166C9.00117 37.922 9.00295 37.9272 9.00589 37.9318C9.00882 37.9364 9.01282 37.9401 9.01754 37.9428C9.02226 37.9455 9.02756 37.947 9.03298 37.9471V37.9471C9.04075 37.9473 9.04821 37.9502 9.05409 37.9552C9.05998 37.9603 9.06391 37.9673 9.06522 37.9749C9.0757 38.0479 9.0229 38.1337 9.00275 38.2038C8.98623 38.2611 8.96246 38.3175 8.93989 38.3791C8.93765 38.3853 8.93725 38.392 8.93872 38.3984C8.9402 38.4049 8.9435 38.4107 8.94822 38.4153C8.95294 38.4199 8.95888 38.423 8.96534 38.4243C8.9718 38.4256 8.97849 38.4251 8.98462 38.4227C9.07811 38.3824 9.09262 38.3626 9.18611 38.257C9.36544 38.0555 9.66406 37.8859 9.93205 37.8137C9.98363 37.7992 10.0364 37.7867 10.0896 37.7759H10.092C10.192 37.7638 11.0386 37.7356 11.2857 37.7666C11.326 37.7734 11.7314 37.8117 11.7644 37.8166C14.9513 38.2808 15.7484 38.8962 18.9908 40.764C19.3273 40.9578 20.4819 41.5244 20.5012 41.5325C20.9002 41.7155 21.2294 41.8585 21.549 41.9693C21.6602 42.0096 21.7698 42.0435 21.8818 42.0733C22.6552 42.2801 23.9733 42.4437 24.6995 42.405C25.1952 42.3788 25.8021 42.2631 26.1906 42.2087C26.309 42.1922 26.3671 42.0967 26.4864 42.0826C26.5295 42.0778 26.5903 42.0826 26.6274 42.0556C26.6645 42.0286 26.6858 41.9774 26.7165 41.9472C26.7264 41.9362 26.739 41.9279 26.7531 41.9234C26.7672 41.9222 26.7813 41.9252 26.7937 41.9318C26.8062 41.9385 26.8164 41.9486 26.8233 41.9609C26.8338 41.9804 26.8487 41.9972 26.8668 42.01C26.8849 42.0228 26.9057 42.0312 26.9276 42.0346C26.9409 42.0383 26.9542 42.0423 26.9679 42.0471C27.0001 42.0595 27.028 42.0808 27.0483 42.1086C27.0686 42.1364 27.0804 42.1695 27.0824 42.2039C27.0841 42.2258 27.0841 42.2477 27.0824 42.2696C27.0819 42.2763 27.0834 42.2831 27.0867 42.289C27.09 42.2949 27.095 42.2996 27.101 42.3027C27.1071 42.3058 27.1139 42.307 27.1206 42.3062C27.1273 42.3054 27.1337 42.3026 27.1388 42.2982C27.321 42.1346 27.3895 41.9234 27.4962 41.8924C27.655 41.8464 27.7872 41.7489 27.9899 41.6748C28.3671 41.5369 28.5291 41.4451 28.8962 41.2488C29.0977 41.142 29.2799 40.9147 29.4822 40.8148C30.1245 40.498 30.7516 40.1898 31.3266 39.7497C31.4959 39.6203 31.9545 39.2258 31.9412 39.4777C31.9404 39.4848 31.942 39.4921 31.9457 39.4983C31.9494 39.5045 31.955 39.5093 31.9616 39.5121C31.9683 39.5148 31.9757 39.5154 31.9827 39.5136C31.9897 39.5118 31.9959 39.5079 32.0004 39.5023C32.1528 39.3145 32.293 38.9925 32.424 38.8369C33.0285 38.12 33.4822 37.555 33.9602 36.7495C34.0811 36.548 34.7504 35.4748 34.7807 35.21C34.7831 35.0182 34.6674 35.0654 34.5719 35.2386H34.5703ZM37.5713 31.3913C37.5206 30.9131 37.4977 30.4323 37.5028 29.9515C37.5028 29.9079 37.4702 29.1149 37.4734 28.7872C37.4734 28.7151 37.5423 26.6361 37.5516 26.0223C37.5523 25.9843 37.5554 25.9463 37.5609 25.9087C37.5296 25.5908 37.5219 25.271 37.5379 24.952C37.2861 25.0014 37.025 24.9537 36.8069 24.8186C36.5245 24.6542 36.2412 24.491 35.957 24.329C35.7555 24.2141 35.6301 24.2657 35.5943 24.4821C35.5803 24.5703 35.5768 24.6599 35.5838 24.7489C35.5927 24.8972 35.6241 25.0447 35.6241 25.1922C35.6201 26.0735 35.6068 26.6869 35.6019 27.5698C35.5955 28.7683 35.5943 27.9264 35.5911 29.1253C35.5911 29.264 35.5911 29.9506 35.589 30.0034C35.5745 30.4387 35.5508 30.8751 35.5298 31.3111C35.5205 31.4993 35.5367 31.6984 35.4665 31.8753C35.3674 32.1272 35.4335 32.3101 35.5874 32.4609C35.7519 32.6221 35.9501 32.6914 36.2443 32.5689C36.5812 32.4278 36.9399 32.3452 37.2897 32.2384C37.5959 32.1453 37.6523 32.0772 37.6241 31.7996C37.6112 31.6617 37.5883 31.5283 37.573 31.3913H37.5713ZM37.1422 21.4428C36.8198 21.4057 36.5046 21.4714 36.2463 21.6959C35.9368 21.9646 35.7853 22.1242 35.6382 22.4772C35.5822 22.611 35.6168 22.7315 35.7055 22.8742C35.715 22.89 35.7253 22.9052 35.7365 22.9197C36.0005 23.3022 36.2794 23.4384 36.7412 23.6411C37.1015 23.799 37.4827 24.0497 37.5121 23.9756C37.3179 23.6866 37.2086 23.4791 37.1518 23.2361C37.3642 23.0914 37.5669 22.8661 37.6201 22.6654C37.6826 22.4301 37.7656 22.3942 37.7301 22.1536C37.6793 21.793 37.5327 21.4875 37.1438 21.4428H37.1422ZM87.5071 55.0826C87.5109 55.1096 87.5038 55.1369 87.4874 55.1587C87.4778 55.1643 87.467 55.1672 87.4559 55.1672C87.4449 55.1672 87.4341 55.1643 87.4245 55.1587C87.3801 55.1322 87.3376 55.1027 87.2972 55.0705C87.2403 55.0265 87.1017 54.9093 87.1239 54.9693C87.1348 55.0003 87.1483 55.0304 87.1642 55.0592C87.2335 55.2035 87.3133 55.3364 87.383 55.4807C87.4003 55.5196 87.4138 55.5601 87.4233 55.6016C87.4273 55.6165 87.4233 55.6584 87.3999 55.6701C87.3909 55.674 87.3811 55.6756 87.3713 55.675C87.3615 55.6744 87.352 55.6715 87.3435 55.6665C87.3044 55.6383 87.2695 55.6046 87.2399 55.5665C87.146 55.4396 87.0562 55.3094 86.9659 55.1797C86.9514 55.1583 86.8914 55.0942 86.8918 55.1325C86.8933 55.184 86.8993 55.2352 86.9095 55.2857C86.9409 55.4424 86.982 55.5762 87.0127 55.733C87.0207 55.7733 87.0332 55.8539 86.9776 55.8736C86.922 55.8934 86.8877 55.8438 86.8688 55.8023C86.8104 55.6749 86.76 55.5444 86.7028 55.4166C86.6711 55.3372 86.6318 55.2609 86.5855 55.1889C86.5085 55.0793 86.4138 55.0858 86.3437 55.2026C86.3034 55.274 86.2752 55.3542 86.2397 55.4295C86.2232 55.4738 86.2007 55.5155 86.1728 55.5537C86.1559 55.573 86.1059 55.5992 86.0862 55.5819C86.0773 55.5717 86.071 55.5595 86.0678 55.5464C86.0647 55.5333 86.0648 55.5196 86.0681 55.5065C86.1337 55.2272 86.1487 54.9335 86.2063 54.657C86.2261 54.5731 86.2252 54.4857 86.2035 54.4022C86.1819 54.3188 86.1402 54.2419 86.0822 54.1783C85.8457 53.8959 85.5836 53.6361 85.2992 53.4021C84.9071 53.0717 84.5137 52.7424 84.1124 52.4236C83.6932 52.0908 83.2705 51.7615 82.8353 51.45C82.5625 51.2546 82.2667 51.091 81.9761 50.9209C81.6469 50.7283 81.314 50.5417 80.9799 50.3567C80.9493 50.3398 80.9078 50.3164 80.8611 50.2939C80.6563 50.1883 80.3404 50.0347 80.2969 50.0218V50.019C80.2098 49.9787 79.7774 49.7929 79.7121 49.7688C79.6469 49.7446 79.6448 49.552 79.6614 49.456C79.6763 49.3706 79.7117 49.265 79.7488 49.2425C79.7523 49.2362 79.7571 49.2308 79.7628 49.2267C79.7686 49.2225 79.7753 49.2196 79.7823 49.2183C79.6863 49.1989 79.5646 49.4399 79.5481 49.5354C79.5316 49.6309 79.5562 49.8469 79.6239 49.8719C79.6376 49.8772 79.7045 49.9062 79.8024 49.9501L79.8512 49.9719C79.9318 50.0069 80.0245 50.0496 80.1256 50.0964L80.2118 50.1367L80.3069 50.1806L80.3154 50.1846L80.4033 50.2249L80.4125 50.2294L80.5092 50.2749L80.5939 50.3152L80.6966 50.3648C80.7111 50.3724 80.7261 50.3793 80.7406 50.3865L80.8139 50.4228L80.8248 50.4285L80.9267 50.4808C80.9642 50.5002 80.9981 50.5183 81.0275 50.5348L80.9066 50.885L80.4879 52.1017C80.4847 52.1258 80.4822 52.15 80.481 52.1742C80.4811 52.1904 80.4794 52.2066 80.4762 52.2226C80.4658 52.2575 80.4488 52.2902 80.4262 52.3189C80.4161 52.3332 80.4067 52.348 80.398 52.3632V52.3632L80.2058 52.9221C80.1743 53.0134 80.1328 53.1008 80.0821 53.1829C80.0696 53.2026 80.0571 53.2232 80.0438 53.2409C80.0305 53.2586 80.0184 53.276 80.0035 53.2929C80.0018 53.2958 79.9998 53.2985 79.9975 53.301C79.9838 53.3183 79.9701 53.3348 79.9572 53.3509C79.9418 53.3678 79.9261 53.3844 79.9104 53.4005C79.9095 53.4021 79.9083 53.4035 79.9068 53.4045C79.7824 53.5363 79.631 53.6397 79.4629 53.7076C79.2949 53.7756 79.1142 53.8065 78.9332 53.7982C78.9045 53.7982 78.8755 53.795 78.8465 53.7918C78.7659 53.7821 78.6853 53.77 78.6084 53.7551C78.5229 53.7382 78.4326 53.7406 78.3496 53.7229C78.2553 53.7027 78.1703 53.6592 78.0728 53.6491C77.9825 53.6399 77.9229 53.5947 77.8378 53.5645C77.8191 53.5581 77.8 53.5528 77.7806 53.5484L77.7613 53.5444C77.7351 53.5395 77.7089 53.5359 77.6807 53.5323C77.37 53.4887 77.0669 53.4218 76.7598 53.3566C76.7619 53.4134 76.7643 53.4613 76.7671 53.4936C76.8134 53.9772 77.029 54.9476 77.908 55.4932C78.0123 55.5581 78.0651 55.5404 78.1651 55.6113C78.2077 55.6468 78.2363 55.6964 78.2457 55.7511C78.263 55.955 78.261 56.2855 78.153 56.4696C78.1034 56.5551 77.9297 56.5252 77.8838 56.4406C77.8266 56.3354 77.8068 56.2577 77.7939 56.1033C77.7899 56.0279 77.7899 55.9523 77.7939 55.8768C77.7963 55.8442 77.7891 55.8117 77.7733 55.783C77.7575 55.7544 77.7337 55.731 77.7049 55.7156C77.37 55.5029 77.1677 55.3078 76.9279 54.9903C76.7917 54.8101 76.7087 54.6139 76.6212 54.4076C76.5191 54.166 76.4343 53.9176 76.3673 53.664C76.3 53.4122 76.2384 53.1522 76.1957 52.8951C76.1852 52.8339 76.1763 52.7742 76.1679 52.711C76.1602 52.6617 76.1567 52.6118 76.1574 52.5619C76.1743 52.4784 76.7675 52.5969 76.7619 52.6787C76.7574 52.7763 76.755 52.9314 76.7554 53.0817C76.7679 53.0841 76.78 53.087 76.7929 53.089L76.8429 53.0995L76.8936 53.1103L76.9456 53.1212L77.0262 53.1381L77.1636 53.1676L77.2168 53.1792L77.4876 53.2385L77.5304 53.2478C77.7931 53.3054 78.0542 53.3634 78.2698 53.4118L78.3263 53.4247L78.7127 53.5113L78.7321 53.5157L78.7587 53.5218L78.7708 53.5246L78.782 53.527C78.8175 53.5347 78.853 53.5399 78.888 53.544C78.9592 53.551 79.0309 53.551 79.102 53.544C79.1121 53.544 79.1218 53.544 79.1314 53.5407C79.1411 53.5375 79.15 53.5387 79.1588 53.5371L79.1738 53.5347C79.1875 53.5347 79.2012 53.5303 79.214 53.527H79.2217C79.2382 53.5238 79.2552 53.5198 79.2713 53.5153C79.2874 53.5109 79.3055 53.5061 79.3225 53.5004C79.3539 53.4904 79.3845 53.4787 79.4143 53.4658C79.4223 53.4627 79.4301 53.4592 79.4377 53.4553C79.4518 53.4492 79.4655 53.4424 79.478 53.4351C79.4905 53.4279 79.4969 53.4255 79.5062 53.4202C79.5155 53.415 79.5312 53.4061 79.5433 53.3985C79.5554 53.3908 79.5614 53.3876 79.5703 53.3815H79.5727C79.5848 53.3739 79.5969 53.3654 79.6086 53.357C79.6203 53.3485 79.634 53.3384 79.6461 53.3288C79.6581 53.3191 79.6686 53.3102 79.6799 53.3001C79.4728 53.3828 79.3208 53.3533 79.0915 53.1748C79.0189 53.1098 78.9385 53.0541 78.8522 53.0088C78.718 52.9491 78.5572 52.9375 78.4359 52.8516L78.6317 52.8693C78.636 52.8567 78.6371 52.8432 78.635 52.83C78.6329 52.8168 78.6276 52.8043 78.6196 52.7936C78.5652 52.713 78.4379 52.6497 78.3617 52.5889L78.0873 52.368L77.7943 52.1327C77.7109 52.0585 77.6581 51.9667 77.5574 51.9135C77.4868 51.876 77.3156 51.8111 77.2378 51.8538L77.3688 51.7833C77.4534 51.7374 77.2596 51.5391 77.2265 51.4851C77.1586 51.3786 77.1068 51.2626 77.073 51.1409C77.0105 50.8991 77.1213 50.5808 77.1822 50.3479C77.2189 50.2056 77.2592 50.0658 77.3031 49.9235C77.3031 49.9183 77.3059 49.9134 77.3075 49.9082C77.3261 49.8433 77.3478 49.7768 77.3659 49.7067C77.3748 49.6777 77.3841 49.6483 77.3929 49.6185C77.3974 49.6039 77.4018 49.589 77.4066 49.5741L77.4345 49.4843L77.449 49.4387C77.4631 49.3932 77.4776 49.3476 77.4925 49.3017C77.5074 49.2558 77.5223 49.2094 77.5376 49.1627C77.5477 49.1316 77.5578 49.1006 77.5682 49.0696C77.5836 49.0228 77.5993 48.9761 77.615 48.9289L77.6307 48.8818C77.6887 48.7097 77.7484 48.5364 77.808 48.3656C77.8241 48.3188 77.8407 48.2725 77.8568 48.2265C77.8729 48.1806 77.889 48.1346 77.9055 48.0891C77.9378 47.998 77.9698 47.9086 78.0015 47.8207L78.0204 47.7679C78.0037 47.7369 77.9784 47.7114 77.9475 47.6946C77.9884 47.697 78.0288 47.6838 78.0603 47.6575C78.0921 47.5693 78.1232 47.4834 78.1538 47.4008C78.1635 47.3742 78.1731 47.348 78.1824 47.3202C78.2344 47.1776 78.2836 47.0446 78.3275 46.9253C78.3396 46.8926 78.3512 46.8608 78.3621 46.8306L78.4153 46.6855L78.4375 46.6247L78.4423 46.6114C78.4492 46.5928 78.4552 46.5755 78.4613 46.5586C78.4673 46.5416 78.4705 46.5332 78.4746 46.5215C78.4786 46.5098 78.4838 46.4945 78.4887 46.4812C78.4911 46.4752 78.4931 46.4691 78.4951 46.4631C78.5116 46.4151 78.5245 46.3772 78.5326 46.351C78.5407 46.3248 78.5455 46.3075 78.5511 46.2882C78.5544 46.2765 78.5572 46.2652 78.56 46.2543C78.56 46.2515 78.56 46.2491 78.56 46.2471C78.5628 46.2366 78.5652 46.2261 78.5673 46.2164C78.5721 46.1955 78.5753 46.1761 78.5777 46.1604C78.5776 46.1592 78.5776 46.158 78.5777 46.1568C78.5822 46.1311 78.583 46.1049 78.5801 46.079C78.5793 46.0706 78.5763 46.0625 78.5713 46.0556C78.5688 46.0525 78.5655 46.0501 78.5617 46.0489C78.5578 46.0477 78.5538 46.0476 78.5499 46.0488H78.5447L78.5378 46.052L78.5286 46.0581C78.4997 46.1088 78.4749 46.1618 78.4544 46.2164C78.4391 46.2535 78.4234 46.2906 78.4077 46.3277C78.2602 46.6769 78.1124 47.0262 77.9644 47.3754L77.6581 48.1314C77.6037 48.26 77.5457 48.3877 77.4969 48.5175C77.4746 48.5616 77.4557 48.6074 77.4405 48.6545C77.4332 48.6948 77.4687 48.7565 77.4449 48.7927C77.4324 48.8117 77.4079 48.8173 77.3869 48.8262C77.3666 48.8366 77.35 48.8531 77.3394 48.8733V48.8757L77.2813 49.018C77.2729 49.0454 77.2648 49.0704 77.2575 49.0873L77.1391 49.367C77.1391 49.3694 77.137 49.3722 77.1358 49.3746L77.1286 49.3924L77.1213 49.4101L76.7663 50.2773C76.678 50.4611 76.6124 50.6025 76.5374 50.7049C76.5318 50.713 76.5261 50.7206 76.5201 50.7279C76.5161 50.7334 76.5118 50.7386 76.5072 50.7436L76.489 50.7641C76.4752 50.7792 76.4605 50.7935 76.4451 50.8069L76.4395 50.8113C76.435 50.8149 76.4306 50.8185 76.4258 50.8218L76.4185 50.8278C76.3689 50.8689 76.3115 50.8995 76.2497 50.9177C76.0848 50.9652 75.8991 50.9402 75.7322 50.9177C75.5178 50.8895 75.289 50.8282 75.0721 50.8282C75.0677 50.8277 75.0633 50.8281 75.059 50.8294C75.0548 50.8307 75.0509 50.8329 75.0476 50.8359C75.0395 50.8459 75.0476 50.8605 75.0544 50.8709C75.0947 50.9278 75.1882 51.0233 75.1544 51.1018C75.1482 51.1119 75.1445 51.1232 75.1435 51.1349C75.1455 51.1471 75.1519 51.1582 75.1616 51.1659C75.1779 51.1828 75.1951 51.1988 75.2132 51.2139C75.2354 51.2297 75.2584 51.2444 75.2821 51.2578C75.3027 51.2719 75.3224 51.3239 75.3401 51.3316C75.2438 51.2971 75.1516 51.2519 75.0653 51.197C74.9663 51.1246 74.8782 51.0384 74.8037 50.9411C74.7113 50.8435 74.6048 50.7602 74.4878 50.694C74.2327 50.5502 73.974 50.5457 73.6891 50.4792L73.0713 50.335C72.8787 50.2898 72.6752 50.2213 72.4765 50.2141C72.473 50.2135 72.4693 50.2136 72.4659 50.2145C72.4624 50.2154 72.4591 50.2171 72.4563 50.2193C72.4529 50.2243 72.4512 50.2302 72.4515 50.2362C72.4515 50.2588 72.4491 50.281 72.4475 50.3031C72.3947 50.2514 72.3378 50.2039 72.2774 50.1613C72.2203 50.135 72.1596 50.1175 72.0973 50.1093C71.9589 50.0776 71.8212 50.0447 71.6842 50.0106C71.3892 49.9368 71.4356 49.5673 71.5395 49.1752L71.4896 49.3102C71.4035 49.542 71.3916 49.7948 71.4556 50.0336C71.5195 50.2725 71.6562 50.4855 71.8466 50.6432L73.2003 51.7656C73.1688 51.7869 73.135 51.8087 73.1011 51.8309C73.0673 51.8534 73.0334 51.8752 73.0032 51.8957L72.6897 51.6358L72.2968 51.3102L72.2843 51.3021C72.2589 51.2841 72.2353 51.2637 72.2137 51.2413L71.8579 50.9467C71.7971 50.9167 71.7393 50.8808 71.6854 50.8395C71.4591 50.6517 71.2967 50.3982 71.2206 50.114C71.1445 49.8299 71.1585 49.5292 71.2607 49.2533C71.2607 49.2533 71.5198 48.5558 71.8321 47.7159C71.0491 47.7264 70.0654 47.5918 69.4142 47.313C68.6393 46.9797 68.0134 46.4147 67.6616 45.6385C67.4694 45.2142 67.4601 44.681 67.5786 44.2281C67.6431 43.9823 67.8466 43.6305 68.0473 43.4221C68.0677 43.3965 68.0914 43.3738 68.1178 43.3544C68.122 43.3505 68.1267 43.3472 68.1319 43.3447C68.2411 43.2698 68.3874 43.2162 68.5047 43.1578C68.7242 43.0573 68.9548 42.9831 69.1917 42.9365C69.2426 42.9238 69.2955 42.9215 69.3473 42.9297C69.3646 42.9329 69.4029 42.9542 69.4057 42.97C69.4086 42.9857 69.3888 43.0002 69.3715 43.0066C69.3251 43.0236 69.2764 43.0377 69.2284 43.053C69.1615 43.0739 68.9955 43.1295 69.058 43.1316C69.1204 43.1336 69.1148 43.1316 69.1543 43.1316C69.311 43.1276 69.4679 43.136 69.6233 43.1565C69.6645 43.1637 69.705 43.1744 69.7442 43.1888C69.7588 43.1936 69.7902 43.215 69.7845 43.2327C69.7812 43.2398 69.7762 43.246 69.77 43.2508C69.7637 43.2556 69.7564 43.2588 69.7487 43.2601C69.7037 43.2671 69.6583 43.2705 69.6129 43.2702C69.4638 43.2668 69.3146 43.2734 69.1664 43.2899C69.1422 43.2924 69.064 43.3121 69.0958 43.3226C69.1277 43.3331 69.1829 43.3472 69.2276 43.3572C69.3611 43.3824 69.4924 43.4183 69.6201 43.4644C69.6548 43.4777 69.7181 43.5067 69.7007 43.545C69.6834 43.5833 69.6342 43.5793 69.5955 43.572C69.4781 43.5487 69.3592 43.5329 69.2397 43.5249C69.1667 43.5187 69.0933 43.5213 69.0209 43.5325C68.908 43.5535 68.8851 43.6184 68.9508 43.6901C68.9911 43.734 69.0394 43.7707 69.0805 43.8142C69.1053 43.8364 69.1264 43.8624 69.143 43.8912C69.1506 43.9073 69.1519 43.9464 69.1345 43.9533C69.1253 43.956 69.1155 43.9565 69.106 43.9548C69.0965 43.9531 69.0875 43.9493 69.0797 43.9436C68.9153 43.8259 68.7029 43.7574 68.4942 43.6925C68.2407 43.6724 68.1573 43.8751 68.0465 44.033C67.9446 44.1859 67.8794 44.3602 67.8558 44.5424C67.7628 45.14 68.0021 45.6478 68.3971 46.0842C68.76 46.4925 69.2285 46.7927 69.7511 46.9519C70.1707 47.0743 70.6039 47.1441 71.0407 47.1598C71.3369 47.1707 71.7334 47.1413 72.0292 47.1328C72.0385 47.1328 72.0441 47.1328 72.0481 47.1328L72.2093 46.6984C71.8781 46.3236 71.2563 45.5656 71.1692 44.8447C71.1019 44.2853 70.5804 43.5148 70.5804 43.5148C70.5804 43.5148 71.55 41.9081 71.2115 41.362C70.9742 40.9796 71.1595 39.8561 71.1019 39.8609C71.0443 39.8658 70.2101 39.6937 69.4331 39.2403C68.9294 39.2403 68.1057 38.8982 65.0704 40.1877C61.4117 41.7417 61.4435 42.0052 60.1052 42.573C59.3165 42.9071 58.8108 43.0739 58.7503 43.0163C58.7032 42.9724 59.0727 42.6206 59.0727 42.6206C58.6832 42.7015 58.3167 42.8688 58.0004 43.1102C57.9246 43.1614 57.8485 43.217 57.7586 43.2787C57.3834 43.6309 56.7511 43.7586 56.7108 43.7679C56.5347 43.8082 56.3941 43.8851 56.1321 43.9843C56.1777 43.8465 56.309 43.5877 56.3651 43.5265C56.4553 43.4278 56.6496 42.6347 56.7161 42.1737C56.7136 42.1334 56.7132 42.1096 56.7128 42.106C56.6794 41.9339 56.2051 41.892 56.2051 41.892C56.2051 41.892 56.2559 41.7183 56.307 41.4672C56.39 41.059 54.6084 39.8641 54.4666 39.7211C54.0604 39.3116 53.3813 39.1093 53.3813 39.1093C53.3813 39.1093 53.6094 38.9945 53.6634 38.9139C53.7388 38.8035 53.7493 38.7966 53.7843 38.6721C53.8 38.6149 53.5462 38.1643 53.3564 37.6888C53.2177 37.3418 53.1077 36.8377 53.0211 36.2784C52.9675 36.2183 52.9667 35.902 52.9667 35.9016C52.9264 35.5856 52.8897 35.2596 52.8603 34.9396C52.8389 34.8135 52.612 34.5769 52.5552 34.4282C52.6736 34.2961 52.7531 34.1337 52.7849 33.9592C52.7636 33.6178 52.7487 33.3095 52.7394 33.0613H52.7418C52.7382 33.0069 52.6036 29.9357 52.5854 29.3748C52.5701 28.9085 52.4142 28.5088 52.0527 28.2118C51.6582 27.8894 50.7728 27.6476 50.2521 27.5231C50.2413 27.5597 50.2304 27.5891 50.2215 27.6153C50.2145 27.6378 50.2106 27.6611 50.2098 27.6846C50.2207 29.2269 50.234 29.5428 50.2457 31.0851C50.2505 31.7576 50.259 32.8316 50.265 33.6505C50.265 34.5914 50.2143 34.4012 50.2872 35.7259C50.3275 36.4653 50.0523 36.9143 49.4913 37.2713C48.9372 37.6235 48.3916 37.9902 47.8258 38.3191C47.5969 38.4529 47.3321 38.5738 46.9843 38.4638C47.4739 37.846 47.6359 37.1553 47.6944 36.4573C47.7097 36.2755 47.7129 36.0813 47.727 35.8907C47.7347 35.6118 47.7391 35.3088 47.7436 35.0162C47.7407 34.9614 47.7379 34.9062 47.7355 34.851L47.7464 34.8453C47.7496 34.6479 47.7536 34.4589 47.7593 34.29L47.7653 33.9833C47.7605 33.9136 47.754 33.8383 47.7456 33.7536C47.7387 33.7324 47.7339 33.7105 47.7311 33.6884L47.725 33.6335C47.725 33.6311 47.725 33.6287 47.725 33.6263C47.7194 33.5719 47.7137 33.5155 47.7069 33.4546L47.7149 33.4578C47.7147 33.4566 47.7147 33.4554 47.7149 33.4542C47.8506 33.4995 47.9793 33.5634 48.0974 33.644C48.0683 33.5841 48.0339 33.527 47.9946 33.4732L47.9813 33.4546C47.7992 33.2152 47.5646 33.1101 47.3845 32.9864C47.1741 32.8421 46.9553 32.7107 46.7232 32.5624C46.7917 32.537 46.8816 32.4782 46.9734 32.475C47.2386 32.4653 47.4204 32.3089 47.6033 32.1526C47.6813 32.0887 47.7435 32.0076 47.7848 31.9157C47.8261 31.8237 47.8455 31.7234 47.8415 31.6226C47.8415 31.6089 47.8415 31.5956 47.8415 31.5823C47.8393 31.3201 47.8369 31.0577 47.8342 30.7949C47.8302 30.4354 47.8241 30.4354 47.4079 29.8378C47.5187 29.7008 47.7037 29.5747 47.719 29.4304C47.746 29.1737 47.7105 28.3931 47.698 28.1376C47.6783 27.7346 47.6912 27.1088 47.5513 26.7965C47.4707 26.6159 47.1588 26.5095 46.9251 26.406L46.4971 26.2794C46.4971 26.2794 45.9458 26.219 45.8838 26.25C45.8217 26.281 46.1163 26.0175 46.1163 26.0175L46.327 25.9574L46.4733 25.7382L46.7679 25.6294L47.5114 25.2321C47.9467 24.6586 47.9648 23.598 47.968 22.9806C47.9745 21.7599 47.9116 19.5713 47.8967 19.4927C47.8221 19.0982 47.6754 18.9535 47.2584 18.8721C47.4159 18.6569 47.5646 18.4466 47.721 18.2418C47.8773 18.0371 47.9096 17.8042 47.8971 17.5568C47.8874 17.3694 47.8886 17.1812 47.8749 16.9926C47.8455 16.5948 47.5997 16.3603 47.2048 16.341C46.776 16.32 46.3436 16.2749 45.9333 16.4441C45.772 16.5059 45.6215 16.5929 45.4876 16.702C45.2273 16.9277 45.2301 17.1393 45.4667 17.3895C45.4985 17.4238 45.5428 17.4459 45.5577 17.5374C45.4908 17.5298 45.4151 17.5398 45.3562 17.5124C44.8787 17.2823 44.5595 16.6396 44.6752 16.1306C44.7021 16.0275 44.7533 15.9323 44.8243 15.8529C45.2632 15.3464 45.6915 14.8281 46.1642 14.3542C46.3057 14.212 46.5729 14.1636 46.7905 14.1358C47.1072 14.0955 47.432 14.1165 47.7528 14.1016C48.0994 14.0854 48.4476 14.0742 48.7913 14.0318C49.7182 13.9182 51.0839 14.0407 52.008 14.0685C52.2224 14.075 52.4375 14.0762 52.6527 14.0943C52.7717 14.0996 52.8888 14.1261 52.9985 14.1725C53.4704 14.3973 53.9342 14.6387 54.4045 14.8668C54.9284 15.1207 55.192 15.5471 55.2105 16.1161C55.2286 16.7165 55.2105 17.3182 55.2145 17.9195C55.2178 18.3224 55.2016 20.1802 55.1904 20.9157C55.1871 21.1172 55.2814 22.4716 55.2105 22.9443C55.1575 23.2697 55.0542 23.5848 54.9042 23.8784C54.7318 24.221 54.413 24.4354 54.1108 24.6546C53.8186 24.867 53.522 25.0745 53.2169 25.2683C53.0348 25.3775 52.8833 25.531 52.7765 25.7144C52.7007 25.8353 52.7265 25.8003 52.7007 25.8353C52.9213 26.003 53.1511 26.1583 53.389 26.3004C53.5905 26.4213 53.8186 26.5506 53.9741 26.6631C54.1265 26.7908 54.3255 26.9258 54.4718 27.06C54.9981 27.5436 55.3411 28.1175 55.3439 28.9162C55.3439 29.2438 55.381 31.3107 55.4164 32.1143C55.4192 32.1784 55.4813 33.6803 55.4817 33.7C55.491 34.0136 55.3802 34.0877 55.2399 34.2485C55.0997 34.4093 54.8881 34.5225 54.9216 34.7103C54.9292 34.7506 55.0497 34.5455 55.146 34.5286C55.3125 34.4992 55.5087 34.396 55.5087 34.4689C55.526 34.9054 55.549 35.2382 55.5583 35.4917C55.6272 37.817 56.6145 39.6147 58.6879 40.5291C59.9549 41.0876 62.8967 39.8581 63.9191 39.3842C64.9414 38.9103 67.4988 37.7186 69.1768 37.5639C69.5372 37.5307 69.8994 37.5226 70.2609 37.5397C70.1247 37.6356 70.084 37.7368 69.9985 37.8395C69.9864 37.8544 69.9909 37.8798 70.0058 37.8677C70.2879 37.6509 70.8468 37.5897 70.8468 37.5897C71.0811 37.6171 71.3131 37.6618 71.5408 37.7235C72.1614 37.9036 72.8069 37.9411 73.1096 38.0245L73.1386 38.0185C73.1584 38.0185 73.2486 38.0035 73.5537 37.9544C74.0844 37.8693 75.0883 37.7319 75.5585 37.4994C76.1973 37.1835 76.6547 36.334 77.2148 36.2401C77.6235 36.172 77.8253 36.342 78.0571 36.494C78.4024 36.72 78.9602 36.7559 78.9602 36.7559C78.9602 36.7559 80.4855 36.3984 80.8619 36.251C81.2383 36.1035 81.802 35.8633 81.8762 35.8181C81.9503 35.773 82.9485 34.9146 82.9485 34.9146L83.3003 36.1353C83.8291 35.9814 84.1518 35.7924 84.336 35.6154C84.5778 35.4829 84.9087 35.3116 84.9087 35.3116C84.9087 35.3116 84.9276 35.7811 85.0251 35.9197C85.1226 36.0583 86.0535 36.575 86.1011 36.6995C86.2111 36.9876 86.2897 37.6699 86.2917 37.8141C86.2937 37.9584 86.3123 38.7684 86.2764 38.9381C86.2635 38.9997 86.1922 39.1464 86.1346 39.171C86.1391 39.1064 86.1399 39.0415 86.137 38.9768C86.0132 38.3783 85.8625 38.1458 85.7952 37.8774C85.7534 37.7136 85.6773 37.5604 85.572 37.4281C85.572 37.4281 84.7737 37.0122 84.6004 36.8977C84.4622 36.9618 83.9508 37.0251 83.6489 37.0726C83.6622 37.1033 83.6711 37.1238 83.6735 37.1287C83.7892 37.3523 84.8204 39.0364 84.8748 39.2262C84.9292 39.416 84.7805 39.9725 84.7785 40.1865C84.7785 40.2744 84.8591 41.0328 84.7994 41.6776C84.7168 42.5718 84.6947 42.7616 84.6729 42.9982C84.6129 42.837 84.5923 42.6875 84.552 42.5621C84.4376 42.1862 84.409 41.8964 84.286 41.6441C84.1224 41.308 83.7436 40.7346 83.6525 40.334C83.5615 39.9335 83.6445 39.4072 83.6445 39.4072C83.6445 39.4072 82.3324 37.3769 82.0636 37.4184C81.85 37.4515 80.8469 37.7118 80.4238 37.8214C80.1989 37.7875 80.0462 37.7589 79.9503 37.7126C79.9878 37.8218 81.2193 38.2635 81.2193 38.2635L81.8431 39.4757C81.8431 39.4757 82.824 40.542 82.9397 40.7652C83.0553 40.9885 83.177 43.408 83.0505 44.0697C82.986 44.407 83.1343 44.7548 83.1343 44.7548C83.0645 44.8626 82.978 44.9587 82.878 45.0393C82.2993 45.4866 81.8544 46.0468 81.4273 46.6412C81.3841 46.6928 81.3402 46.7439 81.2967 46.7951L81.3724 46.8757C81.5772 47.0934 81.7185 47.363 81.7809 47.6553C81.8433 47.9475 81.8244 48.2513 81.7263 48.5336L81.7057 48.5937C81.6875 48.6925 81.6634 48.7902 81.6336 48.8862C81.5901 49.0196 81.5413 49.1514 81.4885 49.2816C81.4293 49.4262 81.3579 49.5753 81.3471 49.7333C81.3426 49.799 81.3213 49.8272 81.2902 49.8864C81.2802 49.9058 81.2717 49.9267 81.2636 49.9461C81.8947 50.2789 82.5 50.6259 83.0827 51.0446C83.5377 51.3706 83.9798 51.7265 84.4146 52.0795C84.7249 52.3318 85.0267 52.6034 85.3262 52.8665C85.7034 53.201 86.0491 53.5673 86.3937 53.9353C86.5678 54.1214 86.7564 54.2653 86.9401 54.4426C87.1049 54.6038 87.269 54.8001 87.431 54.9625C87.4663 54.9952 87.4925 55.0366 87.5071 55.0826V55.0826ZM52.6914 21.9082C52.7007 21.3332 52.7422 20.7585 52.7748 20.1838C52.8288 19.232 52.8151 18.7004 52.5258 17.7784C52.4359 17.4935 52.3368 17.2215 52.0825 17.0365C51.742 16.7899 50.9114 16.6569 50.4939 16.5328C50.5431 16.5473 50.4589 17.7212 50.4536 17.8417C50.4407 18.2705 50.4279 19.2239 50.4133 19.6527C50.4029 19.9884 50.3924 19.7893 50.3819 20.1246C50.3385 20.2698 50.3183 20.4209 50.3223 20.5723C50.3247 20.8238 50.3223 21.0603 50.022 21.1905C50.0966 21.2179 50.1699 21.2445 50.2453 21.2691C50.2957 21.2856 50.2856 21.2973 50.2932 21.3497C50.2983 21.3747 50.3015 21.4 50.3029 21.4254C50.3017 21.5319 50.2619 21.6342 50.1909 21.7136C50.0478 21.8784 49.8282 21.959 49.6642 22.0972C49.6261 22.1287 49.5907 22.1632 49.5582 22.2004C49.5739 22.1823 49.6424 22.1738 49.6658 22.1665L49.7754 22.1319L49.9769 22.0686L50.1683 22.0086C50.23 21.9888 50.2949 21.9441 50.3122 22.0364C50.3166 22.0603 50.3192 22.0846 50.3198 22.1089C50.3045 22.6161 50.2892 23.1234 50.2739 23.6306L50.2497 24.4563C50.7942 24.3483 51.7174 24.1509 52.0148 23.7217C52.3908 23.1837 52.6805 22.5965 52.6914 21.9082ZM78.3521 49.9473C78.2803 49.9308 78.2021 49.9654 78.1268 50.038L78.1224 50.0428C78.0059 50.1701 77.8991 50.3882 77.8403 50.6473C77.7387 51.0886 77.8121 51.4823 78.0047 51.5266C78.0752 51.5427 78.1518 51.5097 78.2259 51.4391C78.3468 51.3138 78.456 51.0918 78.5169 50.8274C78.6176 50.3853 78.5447 49.9912 78.3521 49.9473V49.9473ZM75.9986 46.858C75.9257 46.4735 75.6315 46.2366 75.1926 46.3164C75.0254 46.3466 74.7896 46.4022 74.5688 46.617C74.3935 46.7967 74.2311 47.0808 74.1255 47.5378C73.9696 48.2072 74.1715 48.6662 74.6192 48.7927C74.7743 48.8359 74.9742 48.75 74.9948 48.775C74.9884 48.7819 74.9814 48.7883 74.9738 48.7939C74.7957 48.9793 74.2327 48.9596 74.0425 48.673C74.063 48.7433 74.1004 48.8075 74.1513 48.86C74.4197 49.0728 74.7308 49.068 75.0407 48.9124C75.1959 48.8238 75.3341 48.7444 75.4638 48.6182L75.4751 48.6066C75.6138 48.4615 75.7435 48.2564 75.8741 47.9215C76.0917 47.3601 76.0163 46.9515 75.9986 46.858V46.858ZM79.5119 51.5141L79.5082 51.5177C79.3869 51.6555 79.2977 51.8185 79.2471 51.9949C79.129 52.3717 79.1697 52.7202 79.3382 52.7726C79.4099 52.7952 79.4937 52.7597 79.5751 52.6824L79.58 52.6775C79.6986 52.5405 79.786 52.3794 79.8363 52.2052C79.9543 51.828 79.9136 51.4799 79.7456 51.4275C79.673 51.4053 79.5925 51.4391 79.5119 51.5141ZM79.6529 46.1036C79.5852 46.0879 79.511 46.1209 79.4401 46.1906C79.3309 46.3095 79.231 46.513 79.1754 46.7548C79.0802 47.1687 79.1488 47.5378 79.3289 47.5793C79.3966 47.5946 79.4703 47.5616 79.5413 47.4923C79.6505 47.3714 79.7504 47.1699 79.8064 46.9281C79.9015 46.5142 79.8342 46.1451 79.6529 46.1036ZM80.1655 47.7744L80.1748 47.7683H80.1631C80.2477 47.2287 80.6104 46.7854 80.8006 46.2833C80.8264 46.2144 81.3886 44.9535 81.8734 44.5634C81.9046 44.5382 81.9345 44.5113 81.9628 44.4828H81.9713C81.8238 43.8698 81.2975 41.6792 81.2661 41.4979C81.2294 41.2871 80.1715 39.9939 80.0257 39.8698C79.9604 39.8146 79.665 39.4265 79.2177 39.3056C78.2594 39.4491 77.9035 39.2701 77.4445 39.1573C76.6116 38.9534 75.2817 39.5756 74.9263 39.7404C74.6815 39.8501 74.4293 39.9423 74.1715 40.0161C74.1715 40.0161 73.4541 40.648 72.8493 41.8049C72.2444 42.9619 71.7467 43.3846 71.9437 43.759C72.1408 44.1334 72.5301 44.4562 72.2444 45.4072C72.1988 45.5592 72.3157 45.8775 72.4241 46.1052C72.6844 45.4044 72.8855 44.8636 72.8876 44.8559C72.942 44.7086 73.0207 44.5715 73.1205 44.4501C73.1277 44.4405 73.1354 44.4308 73.1438 44.4215C73.1444 44.4203 73.1452 44.4192 73.1463 44.4183L73.1716 44.3885C73.1886 44.3687 73.2063 44.3482 73.2244 44.3309L73.2458 44.3099L73.2547 44.301C73.2631 44.2926 73.2716 44.2849 73.2805 44.2769C73.2994 44.2591 73.3187 44.2422 73.3389 44.2261L73.3683 44.2027C73.3989 44.1785 73.4308 44.156 73.4634 44.1346C73.4744 44.1273 73.4853 44.1205 73.4961 44.114C73.5178 44.1003 73.5404 44.0875 73.5629 44.0737L73.5908 44.0588L73.6 44.0544L73.6319 44.0387L73.6669 44.0226C73.6786 44.0173 73.6903 44.0121 73.7024 44.0077L73.7387 43.9936L73.7717 43.9815C73.7975 43.9722 73.8237 43.9641 73.8503 43.9565L73.8865 43.9468C73.9876 43.9211 74.0911 43.9065 74.1952 43.9033H74.2037C74.2259 43.9033 74.248 43.9033 74.2706 43.9033C74.2924 43.9033 74.3145 43.9033 74.3367 43.9065C74.348 43.9065 74.3588 43.9065 74.3701 43.9089C74.3814 43.9113 74.4008 43.9121 74.4161 43.9142L74.4564 43.9194C74.4729 43.9218 74.4898 43.9246 74.5063 43.9279L74.9218 44.0085H74.9246C75.2966 44.0181 75.65 44.1503 76.0167 44.2027C76.1816 44.2265 76.348 44.2341 76.5124 44.2599C76.6269 44.2777 76.7393 44.3043 76.8517 44.3309C77.1221 44.3945 77.3917 44.4614 77.6621 44.5259H77.6658L78.5028 44.6839C78.7472 44.73 78.9852 44.8053 79.2116 44.9083C79.2483 44.9249 79.2842 44.9426 79.3204 44.9603C79.4812 45.0404 79.6344 45.1348 79.7782 45.2424C79.9284 45.3532 80.0681 45.4774 80.1957 45.6136L80.3215 45.7474C80.3578 45.7697 80.391 45.7968 80.4202 45.8279C80.4405 45.8533 80.4588 45.8803 80.475 45.9085C80.3533 46.6553 79.9334 47.5479 80.1655 47.7744ZM81.0658 47.7284C81.009 47.7155 80.9473 47.7425 80.8881 47.7998C80.7954 47.9009 80.7103 48.0738 80.6628 48.2797C80.5822 48.6315 80.6402 48.9447 80.7934 48.9801C80.8502 48.993 80.9118 48.966 80.9711 48.9088C81.0642 48.8076 81.1488 48.634 81.1963 48.428C81.2769 48.0774 81.2185 47.7639 81.0658 47.7284ZM73.5988 51.1309C73.6238 51.066 73.3651 50.906 73.0209 50.7738C72.6768 50.6416 72.3762 50.586 72.3516 50.6529C72.327 50.7198 72.5857 50.8782 72.9303 51.0104C73.2748 51.1425 73.5742 51.1961 73.5988 51.1309ZM78.5721 53.1978C78.5975 53.1325 78.3384 52.9729 77.9942 52.8399C77.6501 52.7069 77.3494 52.6529 77.3256 52.719C77.3019 52.7851 77.5594 52.9439 77.9035 53.0769C78.2477 53.2099 78.5475 53.2623 78.5721 53.1978ZM76.0857 52.9584L75.0802 52.7448C74.7762 52.6805 74.4808 52.5803 74.2005 52.4462L74.1916 52.4418C74.1388 52.4164 74.0864 52.3898 74.0349 52.3612C74.0191 52.3527 74.0042 52.3435 73.9889 52.335C73.9486 52.3136 73.9111 52.2923 73.8733 52.2693C73.8519 52.2568 73.833 52.2431 73.8104 52.229C73.7794 52.2097 73.7479 52.1887 73.7177 52.1706C73.8587 52.0642 74.0606 51.9106 74.0586 51.9062C74.0357 51.857 73.8168 51.7648 73.7689 51.7486C73.6222 51.6991 73.5436 51.6902 73.484 51.7317C73.4562 51.7559 73.3893 51.8123 73.3183 51.8695H73.3159L73.2265 51.9429C73.1906 51.9727 73.1592 51.9977 73.1374 52.0154H73.1398L73.0955 52.0521C72.7014 52.3789 72.1158 53.0382 71.9433 53.2973C71.7016 53.66 71.2083 54.4055 71.0008 54.7956C70.9766 54.8471 70.9409 54.8924 70.8964 54.9278C70.8585 54.9516 70.574 54.85 70.4801 54.8267C70.331 54.7896 70.2125 54.7985 70.1376 54.867C70.0997 54.9024 70.1323 54.9701 70.1903 55.0193C70.2574 55.0733 70.3301 55.1199 70.4072 55.1583C70.543 55.2389 70.8766 55.3598 71.0197 55.4271C71.0902 55.4602 71.1708 55.3139 71.1877 55.2405C71.2035 55.1605 71.2297 55.0829 71.2655 55.0096C71.3461 54.8484 71.3719 54.7763 71.4622 54.6223C71.787 54.0703 72.1352 53.5343 72.6038 53.091C72.8969 52.8151 73.205 52.5556 73.5267 52.3136V52.3136C73.9812 52.6276 74.4935 52.8484 75.0339 52.9632L76.0981 53.1893C76.0961 53.149 76.0937 53.1107 76.0917 53.0725C76.0897 53.0342 76.0865 52.9959 76.0865 52.9584H76.0857ZM74.8807 47.0119C74.8719 47.0196 74.8638 47.0276 74.8553 47.0361C74.7691 47.1199 74.7034 47.2275 74.6276 47.3234C74.6111 47.3585 74.5664 47.4314 74.5873 47.45C74.5938 47.4427 74.5998 47.4359 74.6063 47.4294L74.6147 47.421C74.7534 47.2872 74.9214 47.3037 75.0238 47.2666C75.0661 47.2532 75.1043 47.229 75.1346 47.1965C75.1507 47.1766 75.1603 47.1523 75.1622 47.1268C75.1641 47.1013 75.1581 47.0758 75.1451 47.0538C75.0862 46.9225 74.9645 46.9378 74.8807 47.0119Z" fill="white"/>
<path d="M106.297 21.6682V21.925H105.863V23.1184H105.558V21.925H105.122V21.6682H106.297ZM107.436 21.6682H107.872V23.1184H107.59V22.1375C107.59 22.1093 107.59 22.0699 107.591 22.0194C107.591 21.9683 107.592 21.9289 107.592 21.9014L107.317 23.1184H107.023L106.751 21.9014C106.751 21.9289 106.751 21.9683 106.752 22.0194C106.752 22.0699 106.753 22.1093 106.753 22.1375V23.1184H106.47V21.6682H106.911L107.175 22.8085L107.436 21.6682Z" fill="white"/>
</g>
<defs>
<clipPath id="clip0">
<rect width="108" height="57" fill="white"/>
</clipPath>
</defs>
</svg>
