<svg width="432" height="31" viewBox="0 0 432 31" fill="none" xmlns="http://www.w3.org/2000/svg">
<path d="M207.92 5.33012C208 4.60012 207.64 4.06007 207.06 3.66007C206.54 3.31007 205.8 3.20007 205.35 2.78007C205.04 2.49007 204.95 2.05006 204.86 1.65006C204.85 1.58006 204.83 1.52013 204.79 1.47013C204.75 1.42013 204.69 1.40003 204.63 1.37003C204.24 1.20003 203.81 1.03006 203.41 1.15006C203.21 1.21006 203.03 1.34007 202.82 1.41007C202.29 1.56007 201.75 1.27006 201.21 1.40006C200.63 1.53006 200.07 1.8001 199.49 1.9401C198.99 2.0601 198.48 2.15012 198.01 2.33012C197.65 2.47012 197.08 2.86002 196.7 2.86002C196 3.13002 195.58 3.49014 195.07 3.98014C194.14 4.86014 194.06 5.99012 193.63 7.08012C192.39 7.03012 191.15 6.97008 189.91 6.92008C188.57 6.86008 187.22 7.07005 185.88 7.01005C184.15 6.93005 182.58 6.17013 180.88 5.97013C178.29 5.66013 175.72 5.21009 173.14 4.80009C171.05 4.47009 168.88 3.99012 166.75 3.96012C160.95 3.89012 155.16 3.82005 149.36 3.76005C143.8 3.69005 138.23 3.6301 132.67 3.5601C128.12 3.5101 123.56 3.44006 119.01 3.40006C117.32 3.38006 115.99 4.04005 114.33 4.14005C111.98 4.27005 109.59 4.26003 107.25 3.99003C106.78 3.94003 106.3 3.87011 105.84 3.95011C104.04 4.24011 103.56 3.34004 102.05 2.88004C100.27 2.34004 97.8003 2.74013 95.9403 2.72013C92.7403 2.72013 89.6303 2.69011 86.4503 2.95011C82.9303 3.24011 79.5203 4.36007 75.9703 4.41007C73.4603 4.44007 70.9803 3.94009 68.4803 3.68009C65.3203 3.35009 62.1203 3.43005 58.9803 3.89005C56.4203 4.27005 53.8903 4.91009 51.4603 5.80009C50.5103 6.15009 49.5503 6.55006 48.8503 7.27006C48.0803 8.05006 47.6803 9.17005 47.7703 10.26C47.7803 10.37 47.8003 10.5001 47.8803 10.5801C48.1203 10.8501 48.5303 10.4901 48.7303 10.1901C49.6203 8.8401 51.2603 7.72012 52.9103 7.58012C54.6903 7.43012 56.0203 7.96006 57.8303 7.15006C59.1503 6.56006 60.3303 6.06011 61.8203 6.07011C63.0103 6.08011 63.7603 6.72014 64.8003 6.98014C66.0303 7.29014 67.7503 6.9901 69.0203 6.9401C71.9003 6.8301 74.7603 6.5901 77.6403 6.4401C81.8103 6.2201 86.1903 5.76012 90.3603 5.96012C91.5703 6.02012 92.7603 6.20014 93.9603 6.35014C96.9603 6.73014 99.9803 6.93014 103.01 6.85014C107.85 6.72014 112.74 5.86009 117.56 6.68009C118.65 6.86009 119.74 7.32002 120.82 7.36002C121.88 7.40002 123.05 7.1401 124.12 7.0601C126.51 6.8901 128.9 6.78006 131.29 6.77006C141.82 6.72006 156.17 6.68004 166.69 6.63004C168.33 6.62004 170 6.9601 171.62 7.1901C174.45 7.5901 177.33 8.25011 180.19 8.45011C181.08 8.51011 181.93 8.25003 182.82 8.37003C184.17 8.55003 185.47 8.83012 186.84 8.83012C188.83 8.84012 190.89 8.42008 192.84 8.67008C192.25 9.68008 191.59 10.6501 190.86 11.5801C190.52 12.0101 190.16 12.4401 189.91 12.9401C189.58 13.6101 189.4 14.4601 188.72 14.7801C188.39 14.9301 188.01 14.9201 187.67 15.0401C187.33 15.1601 187 15.5101 187.13 15.8401C187.52 15.7801 187.88 15.5901 188.24 15.4101C188.92 15.0601 189.62 14.6901 190.14 14.1401C190.26 14.0201 190.36 13.89 190.46 13.75C190.77 13.29 190.95 12.7401 191.3 12.3001C191.72 11.7701 192.36 11.4501 192.76 10.9001C192.98 10.5901 193.11 10.2301 193.33 9.91007C193.57 9.56007 193.91 9.28003 194.23 8.99003C194.33 9.02003 194.43 9.06013 194.53 9.09013C194.7 9.16013 194.94 9.21009 195.04 9.05009C195.08 8.97009 195.07 8.88008 195.05 8.79008C195.01 8.59008 194.98 8.40011 194.94 8.20011C195.18 7.88011 195.38 7.54009 195.54 7.18009C195.8 6.61009 195.66 5.89006 195.89 5.40006C195.94 5.29006 196.04 5.20003 196.14 5.12003C197.46 4.01003 199.11 3.40011 200.82 3.32011C201.79 3.28011 202.78 3.41013 203.71 3.72013C204.34 3.93013 205.42 3.97014 205.48 4.73014C205.54 5.49014 204.89 6.28006 204.28 6.65006C203.49 7.14006 202.54 7.27013 201.61 7.34013C200.51 7.42013 199.41 7.43003 198.32 7.37003C197.9 7.35003 197.05 7.09014 196.67 7.23014C196.28 7.37014 195.91 8.02011 195.64 8.32011C195.59 8.38011 195.54 8.44005 195.53 8.51005C195.52 8.64005 195.65 8.73008 195.76 8.79008C196.91 9.41008 197.67 9.37006 198.91 9.40006C199.48 9.41006 200.05 9.44007 200.62 9.53007C201.5 9.67007 202.18 9.3601 203.06 9.3101C204.33 9.2401 205.6 8.83004 206.56 8.00004C207.29 7.31004 207.8 6.36012 207.92 5.33012Z" fill="#4D4A8A"/>
<path d="M222.12 13.51C221.38 12.93 220.83 12.37 220.26 12.77C219.68 13.17 219.17 13.8001 219.17 13.8001C219.17 13.8001 218.62 15.05 218.82 15.37C219.01 15.69 218.36 15.6001 219.52 16.0801C220.68 16.5601 220.97 16.94 221.42 16.62C221.87 16.3 222.58 15.6201 222.58 15.1701C222.57 14.7301 222.86 14.09 222.12 13.51Z" fill="#4D4A8A"/>
<path d="M42.8901 9.98006C41.1101 11.2501 39.4301 13.1701 37.0701 14.2301C33.7601 15.7201 26.7001 21.51 24.7801 22.28C22.8601 23.05 21.1601 24.7601 16.5801 22.6001C11.9901 20.4401 6.09011 14.95 7.04011 11.93C7.99011 8.90002 11.7001 9.61002 13.8901 10.31C16.0801 11.01 17.2801 12.82 18.1901 14.8C16.8501 15.57 13.1801 16.15 13.1801 16.15L13.6401 18.2L15.6001 17.53L17.7201 18.2L20.1801 17.56C20.1801 17.56 21.5201 15.03 21.8501 13.12C21.6101 11.15 21.5701 7.40004 19.9901 5.58004C16.1701 4.92004 9.04011 6.16996 7.27011 6.99996C5.50011 7.82996 0.860113 10.07 0.850113 10.32C0.840113 10.57 5.60011 18.28 5.60011 18.28C5.60011 18.28 7.82011 21.68 7.87011 24.34C11.5401 25.8 21.9501 26.7799 23.8201 27.8599C25.4901 25.7999 30.9901 20.5001 32.9401 19.2301C34.4901 18.2201 43.2901 14.37 45.3201 11.37C45.4901 10.26 43.0001 11.1201 42.8901 9.98006Z" fill="#4D4A8A"/>
<path d="M226.85 5.47009C226.74 5.58009 225.28 5.69001 225.25 5.51001C225.21 5.32001 225.36 4.35999 225.36 4.35999L220.85 0C220.74 0.19 216.31 5.14004 216.23 5.29004C216.15 5.44004 209.56 11.6601 209.36 11.8301C209.15 12.0001 207.46 13.7301 207.46 13.7301L206.29 14.5601L207.03 16.65L208.63 18.25C208.63 18.25 213.88 23.6501 214.07 23.6901C214.26 23.7301 219.18 28.6301 219.25 28.9301C219.32 29.2301 221.71 29.99 221.74 29.87C221.77 29.75 227.51 24.1001 227.51 24.1001C227.51 24.1001 227.24 23.24 227.35 23.13C227.46 23.02 228.84 23.28 228.84 23.28L229.22 22.9C229.22 22.9 232.36 19.26 232.46 19.14C232.57 19.02 233.66 18.0301 233.76 17.8401C233.87 17.6501 234.76 16.8401 234.76 16.8401L234.72 15.61C234.72 15.61 235.61 14.7901 235.5 14.6801C235.39 14.5701 234.61 13.79 234.61 13.79C234.61 13.79 226.96 5.35009 226.85 5.47009ZM232.09 15.7101L231.49 15.41C231.49 15.41 230 16.82 229.89 17.01C229.78 17.2 230.04 18.05 230.11 18.28C230.19 18.51 226.2 21.52 226.05 21.67C225.9 21.82 221.51 26.88 221.51 26.88L218.82 26.0701C218.82 26.0701 217.15 24.24 216.82 24.05C216.48 23.86 216.97 22.8601 216.97 22.5601C216.97 22.2601 214.14 20.55 213.8 20.51C213.46 20.47 209.93 16.1201 209.78 15.9701C209.63 15.8201 209.5 14.05 209.5 14.05L211.98 12.29L214.36 11.8401C214.36 11.8401 213.54 10.6501 213.32 10.4301C213.1 10.2101 220.4 3.3501 220.4 3.3501C220.4 3.3501 223.56 6.37003 223.83 6.78003C223.83 6.78003 226.62 9.8 226.62 9.87C226.62 9.95 231.46 13.52 231.46 13.52L232.61 14.67L232.09 15.7101Z" fill="#4D4A8A"/>
<path d="M425.36 12.8101C423.75 11.5301 416.78 8.48015 412.71 8.22015C410.65 9.69015 409.68 13.5202 408.95 15.4702C408.82 17.5002 409.57 20.4201 409.57 20.4201L411.93 21.6801L414.26 21.5201L416.1 22.6901L417.08 20.7101C417.08 20.7101 413.48 19.2001 412.3 18.0901C413.72 16.2901 415.4 14.7401 417.81 14.5601C420.22 14.3901 424.19 14.5801 424.41 17.9101C424.63 21.2401 417.24 25.3901 412.02 26.4601C406.8 27.5301 405.49 25.37 403.71 24.11C401.94 22.85 396.15 15.1902 393.14 12.8502C390.24 10.5902 387.73 8.29006 384.37 6.63006C383.58 6.24006 382.77 5.88005 381.91 5.74005C381.62 5.70005 381.34 5.69013 381.07 5.70013L381.92 5.03009L367.76 2.41009C367.76 2.41009 348.16 2.47006 325.28 2.75006C324.94 2.75006 323.73 2.87012 323.6 3.31012C323.57 3.42012 323.47 3.81007 323.42 3.89007C323.26 4.13007 321.85 5.71016 321.84 5.48016C321.83 5.03016 321.66 4.5701 321.31 4.2901C320.43 3.6001 318.68 4.19009 317.74 4.53009C316.68 4.92009 315.52 5.61005 314.37 5.62005C313.04 5.64005 310.92 3.33016 309.55 3.35016C304.32 3.41016 299.09 3.4801 293.87 3.5401C288.31 3.6101 282.74 3.67005 277.18 3.74005C271.38 3.81005 265.59 3.88012 259.79 3.94012C256.98 3.97012 254.26 4.84006 251.5 5.13006C249.49 5.34006 247.5 5.74009 245.56 6.28009C245.56 6.28009 245.56 6.27008 245.55 6.27008C245.43 6.01008 245.31 5.73013 245.24 5.45013C245.18 5.20013 245.21 4.97015 245.11 4.72015C244.88 4.15015 244.43 3.64009 243.93 3.28009C243.47 2.96009 243.12 2.72016 242.58 2.60016C241.94 2.46016 241.37 2.30009 240.71 2.28009C240 2.25009 239.2 2.21016 238.51 2.35016C237.93 2.47016 237.5 2.94013 237.07 3.32013C236.71 3.63013 236.37 3.97013 236.05 4.32013C235.6 4.81013 235.15 5.36008 235.08 6.02008C235.04 6.42008 235.14 6.83014 235.27 7.21014C235.4 7.59014 235.56 7.97006 235.86 8.25006C236.11 8.49006 236.19 9.15008 236.51 9.27008C237.37 9.60008 238.07 9.49005 238.98 9.62005C239.4 9.68005 240.06 9.44011 240.62 9.18011C241.1 9.00011 241.58 8.74006 241.93 8.63006C242.05 8.59006 242.16 8.56008 242.28 8.52008C242.57 8.48008 242.88 8.45015 243.22 8.34015C243.23 8.34015 243.24 8.29015 243.25 8.22015C243.73 8.09015 244.2 7.96016 244.69 7.85016C244.8 7.83016 244.9 7.81009 245.01 7.78009C245.24 8.19009 245.51 8.59015 245.86 8.97015C246.02 9.15015 246.19 9.32014 246.38 9.46014C246.66 9.67014 246.98 9.81013 247.3 9.95013C247.75 10.1501 248.16 10.3401 248.65 10.4301C249.12 10.5201 249.58 10.6101 250.05 10.7001C250.14 10.7201 250.23 10.7301 250.32 10.7501C250.88 10.8601 251.54 11.1002 252.1 11.1002C251.48 10.8002 250.92 10.3702 250.3 10.1002C249.68 9.84016 249.19 9.3601 248.6 9.0401C248.18 8.8201 247.78 8.80008 247.4 8.52008C247.01 8.22008 246.66 7.88006 246.35 7.50006C247.67 7.26006 249.01 7.10009 250.36 7.03009C252.21 6.93009 254.12 7.27008 255.93 7.02008C257.23 6.84008 258.58 6.59015 259.89 6.59015C270.42 6.64015 284.77 6.68016 295.29 6.73016C304.73 6.77016 312.23 8.29014 321.67 8.33014C329.36 8.37014 337 6.22007 344.7 6.26007C350.68 6.29007 356.56 7.17009 362.54 6.91009C362.69 6.90009 362.85 6.90004 363 6.86004C363.49 6.75004 363.88 6.34006 364.09 5.88006C364.3 5.42006 364.38 4.91009 364.45 4.41009C364.86 5.06009 364.79 6.56016 365.32 6.98016C365.7 7.28016 366.56 6.96011 367.03 7.05011C367.03 7.05011 367.1 7.06014 367.21 7.08014C368.91 8.20014 371.61 8.95011 373.15 9.30011C375.2 9.77011 377.32 9.72012 379.42 9.81012C383.49 9.98012 385.42 12.9802 389.4 13.3502C391.19 13.5202 394.47 17.1701 396.15 18.9401C397.83 20.7101 402.14 27.4901 403.34 30.0101C405.52 29.3701 416.4 30.9402 420.51 30.3502C421.22 27.6502 424.33 24.7202 424.33 24.7202C424.33 24.7202 431.11 18.0201 431.15 17.7601C431.14 17.5301 426.96 14.1001 425.36 12.8101ZM244.07 6.72015C243.64 6.86015 243.22 7.00007 242.79 7.14007C242.25 7.28007 241.67 7.49014 241.47 7.58014C241.35 7.63014 241.25 7.68015 241.14 7.72015C241.12 7.73015 241.11 7.73005 241.09 7.74005C241.03 7.76005 240.92 7.81004 240.78 7.86004C240.39 8.00004 240.03 8.06015 239.48 8.09015C238.82 8.13015 237.92 7.92011 237.53 7.43011C237.44 7.31011 237.35 7.19012 237.29 7.06012C237.16 6.80012 237.12 6.51015 237.08 6.22015C237.04 5.90015 237 5.56006 237.11 5.25006C237.23 4.92006 237.5 4.66013 237.78 4.45013C238.39 4.00013 239.11 3.71015 239.85 3.59015C240.42 3.50015 241.32 3.41015 241.83 3.72015C242.64 4.20015 243.69 4.97016 244.07 5.85016C244.19 6.11016 244.29 6.37005 244.4 6.62005C244.29 6.66005 244.18 6.69015 244.07 6.72015Z" fill="#4D4A8A"/>
</svg>
